/* XPM */
static const char *xpm_[] = {
/* columns rows colors chars-per-pixel */
"64 64 224 2 ",
"   c #060606",
".  c #060609",
"X  c #06090E",
"o  c #0B0B0D",
"O  c #0A0707",
"+  c #040C13",
"@  c #0D0D11",
"#  c #040C17",
"$  c #100F12",
"%  c #0E1015",
"&  c #05111C",
"*  c #0A121A",
"=  c #121214",
"-  c #15161A",
";  c #16191E",
":  c #1A1A1C",
">  c #1A1718",
",  c #0E100F",
"<  c #0B1A26",
"1  c #141B23",
"2  c #1C1D21",
"3  c #151D29",
"4  c #221F22",
"5  c #1D2125",
"6  c #1B242B",
"7  c #1E2731",
"8  c #222225",
"9  c #252529",
"0  c #27292D",
"q  c #2A2B2E",
"w  c #28272C",
"e  c #2C2E31",
"r  c #252C36",
"t  c #2B3036",
"y  c #333335",
"u  c #35363A",
"i  c #3A3A3C",
"p  c #37383A",
"a  c #423E3F",
"s  c #3E3E42",
"d  c #313B46",
"f  c #273744",
"g  c #413F42",
"h  c #3F4147",
"j  c #3A4956",
"k  c #3F515F",
"l  c #424346",
"z  c #434549",
"x  c #4B4B4E",
"c  c #47484D",
"v  c #4C4E52",
"b  c #454E58",
"n  c #4F5257",
"m  c #535355",
"M  c #555559",
"N  c #5B5B5D",
"B  c #565A5D",
"V  c #504F54",
"C  c #495A68",
"Z  c #5D5D61",
"A  c #525C65",
"S  c #5D6167",
"D  c #5A6A79",
"F  c #4F6271",
"G  c #616165",
"H  c #67686C",
"J  c #6C6C71",
"K  c #6E7176",
"L  c #75767A",
"P  c #77787A",
"I  c #706F74",
"U  c #577E9C",
"Y  c #5A7E9B",
"T  c #5D7283",
"R  c #627686",
"E  c #687A88",
"W  c #797C81",
"Q  c #657E93",
"!  c #677F95",
"~  c #5D829E",
"^  c #79828A",
"/  c #62839E",
"(  c #6C869C",
")  c #6E899E",
"_  c #6E8394",
"`  c #738A9D",
"'  c #7B8D9D",
"]  c #758796",
"[  c #7A909E",
"{  c #5D83A1",
"}  c #6386A1",
"|  c #6689A4",
" . c #6C8BA5",
".. c #6E8DA9",
"X. c #6887A3",
"o. c #728EA5",
"O. c #718EA9",
"+. c #7A8FA3",
"@. c #6D91AA",
"#. c #7391A6",
"$. c #7C92A5",
"%. c #7492AA",
"&. c #7A95AC",
"*. c #7D99AE",
"=. c #7E9AB1",
"-. c #7496B0",
";. c #8C8B8D",
":. c #848486",
">. c #8D8E92",
",. c #858B97",
"<. c #87919B",
"1. c #939599",
"2. c #9C9C9D",
"3. c #939396",
"4. c #8296A6",
"5. c #8196A9",
"6. c #839AAD",
"7. c #8A9CAD",
"8. c #8898A5",
"9. c #9A9CA2",
"0. c #949BA5",
"q. c #839DB3",
"w. c #899FB1",
"e. c #9BA2AA",
"r. c #86A0B5",
"t. c #8BA3B5",
"y. c #8CA5B9",
"u. c #8FA8BC",
"i. c #86A2B9",
"p. c #93A4B4",
"a. c #91A7BA",
"s. c #92A9BD",
"d. c #94ABBD",
"f. c #96ACBE",
"g. c #94AABC",
"h. c #99AEBF",
"j. c #9AADBC",
"k. c #9AA8B5",
"l. c #9DB1BF",
"z. c #A3A4A6",
"x. c #A3A5AB",
"c. c #ABABAD",
"v. c #A7AAAF",
"b. c #A4ACB5",
"n. c #ABAEB4",
"m. c #A4AEBB",
"M. c #ABAEB9",
"N. c #ADB1B7",
"B. c #A5B2BC",
"V. c #ACB1BB",
"C. c #A7B0B7",
"Z. c #B3B2B5",
"A. c #B2B5BC",
"S. c #BBBBBE",
"D. c #B6B8BD",
"F. c #95ACC1",
"G. c #99AEC0",
"H. c #9AAFC2",
"J. c #9DB1C2",
"K. c #9DB2C3",
"L. c #9AB2C7",
"P. c #A1B4C3",
"I. c #A2B5C5",
"U. c #A4B7C6",
"Y. c #A6B7C7",
"T. c #A3B5C4",
"R. c #ACB6C1",
"E. c #A5B8C7",
"W. c #A6B8C6",
"Q. c #A9BAC6",
"!. c #A4B6C8",
"~. c #A6B9C8",
"^. c #A5B9C9",
"/. c #A9BBC9",
"(. c #AABBCB",
"). c #A8BACA",
"_. c #ABBDCB",
"`. c #AABCCA",
"'. c #AABCC9",
"]. c #AABBCA",
"[. c #A8B7CA",
"{. c #B4BBC4",
"}. c #BBBDC3",
"|. c #B6BCC6",
" X c #C1BFC0",
".X c #BEC0C5",
"XX c #B5C1CC",
"oX c #BBC2CC",
"OX c #BBC9D5",
"+X c #BCC7D3",
"@X c #C3C3C5",
"#X c #C4C6CC",
"$X c #CACACC",
"%X c #C7C8CB",
"&X c #C4CBD4",
"*X c #CCCDD3",
"=X c #C4CAD4",
"-X c #CDD1D5",
";X c #C4D1DB",
":X c #CCD3DB",
">X c #D2D3D5",
",X c #D4D6DB",
"<X c #D6D8DD",
"1X c #DADADD",
"2X c #D8D7DC",
"3X c #CCD6E0",
"4X c #CED9E4",
"5X c #C3D3E0",
"6X c #D5DAE2",
"7X c #DDDDE1",
"8X c #D3DCE6",
"9X c #E0DFE4",
"0X c #DBE1E8",
"qX c #E2E2E4",
"wX c #E6E6EA",
"eX c #E6E8ED",
"rX c #EBEBEE",
"tX c #E8E6E7",
"yX c #F1EDEB",
"uX c #EDEEF2",
"iX c #F0EFF3",
"pX c #EEF0F4",
"aX c #F1F2F4",
"sX c #F3F4F9",
/* pixels */
"'.'.'.'.'.'.(.(.(.(.(.'.'.'.Q.W.~.~.~.W.Y.Y.T.T.T.T.Y.Y.Y.Y.Y.W.Y.~.(.(.(.(.(.(.(.(.~.~.~.~.~.~.~.~.(._.(.'._.'.'.'.'._._.'.(._.",
"'.'.'.'.'.'.(.(.(.(.(.(.(.(.Y.T.P.P.P.P.P.J.J.J.J.J.J.J.J.J.J.J.T.T.!.~.(.~.(.~.~.W.T.W.W.Y.Y.Y.!.!.(.(.(.(.'.'.'.'.'.'.'.'.(._.",
"'.'.'.'._._.'.'.(.(.~.~.T.T.P.P.J.J.J.J.K.H.H.f.f.f.H.f.f.f.f.f.H.H.K.K.P.T.T.T.P.J.J.K.K.J.J.J.T.T.T.Y.Y.~.(.(.'.'.'.'.'.'.'.'.",
"'.'.'.'._._.'.'.(.(.~.Y.P.J.l.H.H.h.H.G.f.f.g.a.a.a.a.u.a.u.u.u.a.a.s.s.g.f.f.f.g.s.a.s.s.s.g.f.h.h.J.J.P.T.Y.(.(.'.'.'.'.'.'.'.",
"'.'.'.'._._.(.(.(.(.W.P.K.h.f.f.f.d.s.u.u.y.t.r.y.r.y.r.r.r.q.q.q.q.r.r.r.r.r.q.q.q.q.q.q.r.r.y.a.g.H.H.H.l.P.Y.(.(.'.'.'.'.'.'.",
"'.'.'.'._.(.(.(.(.~.T.J.f.s.a.u.u.y.y.q.q.q.q.q.q.q.q.q.q.=.q.=.=.=.=.*.&.&.&.&.&.&.&.&.&.*.=.q.r.u.d.f.f.f.h.J.Y.(.'.'.'.'.'.'.",
"'.'.'.'.'.'.(.(.~.T.J.f.a.y.r.r.r.q.q.=.*.*.&.&.*.=.&.&.&.&.&.&.%.%.%.%.%.%.O.O.O.O.O.#.%.#.%.&.*.r.y.u.g.g.g.j.P.Y.(.(.~.'.'.'.",
"'.'.'.'.'.'.(.~.T.K.H.a.y.q.q.=.=.*.&.&.&.%.%.%.%.%.%.%.%.%.%.%.%.%.%.O.O. . . . . . .O.O.O.%.%.%.*.q.t.s.g.a.g.J.T.Y.(.~.'.'.(.",
"'._._.(.'.'.~.T.J.f.u.r.q.*.&.%.O.%.%.%.O. . . .O...........O.O........... . . . . ... ... . . . .%.*.r.y.u.s.a.g.H.P.T.Y.~.(.(.",
"'._._.(.(.~.P.H.g.y.q.q.*.%.%. . . . . . . ..... ......... . .X... . . . . . . . . . . . . . .X. . .%.=.r.y.s.s.a.f.h.J.T.W.~.~.",
"(.'._.(.~.K.f.u.r.q.&.&.%.%. . . . . . . .| | |  . . . . . . . . . . .%... . ... . . . . . .| } /  .#.&.=.r.y.u.u.a.g.h.P.Y.W.Y.",
"(.'.(.~.T.K.u.q.*.&.%.O... . .|  . . .| } / / / X. . .X. . . . . . . . . ..... ....... . . .| } / |  . .%.=.r.y.y.u.a.h.P.Y.Y.T.",
"(.(.~.Y.J.g.r.*.#.#. . . . .|  . .| } } / ~ / } } |  . . . . . .O.o.O.O.O.O.O.O.O.O. . ..... .} } }  . . .&.=.q.r.t.g.J.T.W.W.Y.",
"(.(.Y.K.H.u.q.&. . . . . .| | | } / ~ ~ ~ ~ } } |  . . . ...O.%.#.O.#.#.%.%.%.%.O.O......... . .} } }  . .%.&.=.r.r.s.K.!.~.W.Y.",
"(.W.T.J.f.r.*.#. . . .| | } } | } ~ ~ ~ / } }  . ... ...O.O.O.O.#.#.$.&.%.%.%.&.%.%.%.O. . . . .X.} }  . . .#.&.=.q.t.h.!.~.W.T.",
"(.Y.P.H.s.r.&. . . .| } / / ~ ~ ~ ~ ~ ~ } | |  . .o.o.+.+.` ( _ R E ' r.$.T R $.$.$.$.+.O. . . . .} }  . . . .%.*.*.q.g.T.~.Y.P.",
"Q.Y.P.G.y.=.%. . . .| } ~ Y Y ~ ~ ~ ~ } }  . .o.` ] _ A 0 * + + @ 1 3 5 1 + + 6 6 b ] ` +.(  . .| | |  . . . . .%.&.6.t.J.Y.~.K.",
"Q.Y.K.F.i.=.%. . . .} } ~ Y Y ~ ~ ~ } }  .o.` E f & + X o 8 i :.D.>X7X>X>X@X1.G % X # d ! ` )  .| |  .}  .}  ...%.%.$.r.h.P.!.K.",
"Y.P.K.F.q.%.O. . . .| ~ ~ U Y Y U ~ /  .` R < + + 6 J #X7X@Xe q w 9 8 8 = , = = l 1.3 + < F ` )  . . . . .| .. . .%.&.7.g.J.K.K.",
"Y.P.K.u.q.%.O. . . .} ~ Y U Y Y Y }  .+.j # * S -XrXpXpXsX*X8 7XqX7X>Xn.3.2.%XwXH y ,X,.# & k ` )  . . .} | ..| ..%.&.q.a.h.J.K.",
"Y.P.H.y.=.%.O. . . .} ~ Y U Y Y ~ / +.E * 5 >XiXsXrXsXsXuXW ; 7XsXsXuXsXrXaXaXrX@X@ Z sX*X1 + j [ ) )  . ... .@. .%.&.6.y.f.h.J.",
"Y.P.H.y.=.%.O. . . ./ ~ ~ Y Y Y / o.C < v >XtXyXyXaXaXsXuXz s uXsXuXpXpXsXuXsXaXaXN $ ,XsX7Xe + C $.)  . ...|  . . .&.*.r.u.f.K.",
"Y.K.H.y.q.%.O. . .| } { { Y Y / ( C & b 0 : > 4 a G >.@X2XZ }.wXwXuXrXuXrXpXaXuXiX9Xy D.rXqX%X2 + E 4.o. .| .. . . .%.&.q.u.s.J.",
"Y.K.G.y.q.&.O. . .| } { { Y Y ! C * A eX7X2.u 9 : @ = @ - = > : 2 8 9 9 e p l s i g i u 9 > - - X & 7.$. . . . . . .%.%.q.r.a.J.",
"T.K.H.y.q.&.#. . . .} { ~ ! / D * l uXpXpXsXe 9 7XqX7X2X%X2.P N x i y 9 2 - : : 2 : 8 8 u N 3.$Xz.X r t.o. . . . . .%.&.q.y.H.P.",
"T.K.H.u.q.&.%.#...| | | } Q Q < - 2XpXsXpXuXB % -XsXuXaXaXsXaXaXaXaXaXrXrXwXwXeXZ.9 1XrXrXaXsXiXeXB + ] $.o. . . . .O.&.q.u.H.T.",
"T.K.K.s.y.q.&.#. . .| / ( Q j & v.aXpXuXsXpXD.2 9XaXaXsXpXuXpXpXpXaXrX2Xz.G 1.,X,X8 2XpXaXaXuXaXaX2X* 3 k.$.) O. . .O.%.=.u.H.Y.",
"!.P.H.s.y.q.&.&.%. . .} ( Q & d uXsXsXsXsXuXx.8 qXaXaXuXsXpXpXpXeXn.e o o = q @ = y %XuXsXsXpXaXiXrXK + <.8.` )  . .O.%.*.y.K.!.",
"Y.T.K.f.u.r.*.&. .@. . .( j * P e.%X7X2XqXwX}.s rXrXrXrXeXsXuX>Xy O @ i c.qX2Xz o o o x eXuXsXaXaXaX1XX 6 j.+.o. ...%.%.*.t.J.~.",
"W.T.K.f.s.r.q.*.%. . . ._ & 8 u @ = % @ = 8 u 8 8 e q e y y P = O 9 c.rXaXqXZ = = = - @ 2 *XeX7X2X@XZ.l + e.4.)  ...@.%.*.t.J.~.",
"~.T.J.h.g.u.r.q.&.%.O.) C + n.:.@ $XZ.;.:.2.c.>.u 9 v L c i O o z.9.4 Z S.q = N -XqX1XW : - 9 8 : : : q X j t.o. .@.%.%.*.t.J.Y.",
"~.T.J.h.f.a.r.r.=.%.O.( < 1 qX> $ qXiXsXaXiXaXaXz c pXpX.X= =  XaXsXc.- o : @XrXsXsXuXpX2.Z 2 c.,X2XqXqX5 * p.+. .@.%.%.*.t.h.P.",
"W.T.P.l.f.s.u.y.r.&.&.` < <.qXO . wXsXiXaXuXaX2X: 1.sXqX9 o Z.aXaXpX1X: 2 i uXsXrXrXrX9X= >Xm x rXsXsXsX>.+ ] $.O.%.%.%.*.q.g.J.",
"W.T.P.l.h.a.y.i.q.&.$.D 7 eX>XO : uXuXsXuXaXqX:.- 1XrX2.o I uXrXwXwXv = ;.@ n.7Xl 2 M >.e uX>Xq c.sXpXuX7X@ t 8.+.%.-.%.*.q.a.H.",
"!.T.P.l.h.a.y.r.r.6.4.< 6 rXS.O z sXsXsXsXuXH y m wXqX9 = q 1.qX0Xc.o P uXH m 8 = m o 9 >XrXsXI l eXsXuXrX9 + <.$.%.-.%.*.q.y.F.",
"~.!.P.l.j.a.y.r.q.q.] & S pXz.@ *XsXuXsXuXrXx u %XqX>Xo y ;.8 M 2X9 5 wXrX7X= O O o u o m uXaX,Xe %XsXpXsX:.+ R $.%.-.&.*.q.t.g.",
"^.!.T.J.h.a.y.r.q.7.D + e.qXD.y 7X7X7XqXqX7Xm M >X>X@Xo N qX>Xc.G @ >.sXeX9 . . O . m M o 1.iXiXx M uXsXuX*XX d ' %.%.&.*.q.y.F.",
"^.!.T.l.h.a.y.r.q.7.7 X - @ % X @ @ @ o o o @ @ - : l O >.qXqXqXx @ 2XsX:.o O . O . 2 >X: - 9XrXz.0 }.D.@X@X% * ' $.#.&.*.q.y.F.",
"~.!.P.l.j.a.y.q.6.8.1 X y s x S J J G N M v M N J >.S.= %XqX1X,X= e uXqX= O O O O = o >X2.o e = l 8 z : $ - % + 4.7.&.&.*.q.s.H.",
"~.U.P.l.f.a.r.w.7.8.1 - wXsXpXsXiXsXsXsXrXwXqX7X7XqXc.- D.$X2X%Xo P wXD.O O O O O 8 O P %X@ : n.wXq 8 8 q m n + 0.p.5.$.6.q.F.K.",
"~.Y.P.l.g.t.t.7.p.k.z z rXsXsXsXuXsXiXsXrXqXqX7XqX1X;.o u u m m o o - y O O O O O 9 o 9 9 y O qXpXc 9 qXtXqXn.X ^ k.7.5.q.q.s.L.",
"Y.P.J.J.g.a.p.j.C.b.G - H Z.>XqXrXiXuXsXeXqXqX7X7X7X;.o S.2X1XM o S.2X5 = O O O O : = @Xl q o ,XpXP = qXrXrXZ.X W V.p.a.q.r.u.H.",
"W.Y.P.k.k.P.XX&XC.C.n y - o o o : y x N H I J H H J M O }.qXqXu = qX0X% q o . . . = : >X0X^ o 2XsXn.= D.Z.c.1.@ >.R.OX(.5.q.s.K.",
"W.P.j.j.OX3X8X;XA.b.; B %XD.J e = o o O @ . @ @ o o o O 3.2XwX9 8 rX7Xo G @ ; @ - 8 i 1XqXn.- ,XuX*X@ o   O 0 @ H V.+Xp.6.7.u.K.",
"J.P.B.+X8X0X3XoXC.b.1 - $X1X7X7X2X*X$Xv P 7X,X,X,X,X.X= % : *Xq G pX,X% >.b.n.e.9.u X H ,X*X= qXsX,X- 2.;.P }.- Z n.{.P.6.r.s.U.",
"T.P.m.:X6X-XoXV.C.C.n - }.$X@X$X@X%X-XI H ,X-X>X7X,XD.8 5 v V G .XN.1.- 9.n.V.V.M.1.2 X q A.= D..Xe.= 1.$X#X#Xt n }.:XOX7.a.K.K.",
"K.P.XX,X$XD.V.V.C.C.3.0 : @ = @ o - u 5 - - % = q 9 8 o @ @ @ X X @ 1 s M.M.M.V.M.V.x.l X ; : = @ - o > = % @ 5 :.-X6XOXp.t.K.U.",
"T.W.:X:X@XZ.V.M.V.C.A.n.z.:.W K m s l s h s v P 3.1.9.9.;.H S h e 8 h 9.M.V.V.V.V.A.M.N.1.:.x.9.x.x.c.:.3.9.x.N.*X6X:XQ.7.g.f.K.",
"T.T.;X3X#XA.n.V.V.V.M.M.M.V.M.n.n.A.n.A.}.#X}.A.M.V.V.M.C.C.V.V.M.V.n.V.M.M.|.#X*X*X#XD.A.V.n.V.V.V.}.D.Z.D.%X*X6X&Xj.7.$.y.F.L.",
"Y.Q.;XXX=X&XA.A.A.V.V.M.V.V.V.M.V.V.M.A.*X:X*X#XV.A.A.A.A.A.V.M.n.n.C.b.V.#X:X,X,X2X2X2X#XA.M.V.V.&X6X2X$X>X2X6X6X+X7.4.w.a.F.L.",
"(.T.B.Y.3X:X,X,X:X*X}.n.N.n.n.n.C.C.C.A.{.A.D.#X>X,X2X2X,X,X>X*X#Xn.n.M.M.M.V.}.:X7X2X6X2X:XA.M.V.&X6X<X*X6X0X8X4X;Xa.4.7.g.K.K.",
"(.P.Y.j.XX;X+XoX{.}.*X*X*X*X*X#XC.C.{.-X:X-X-X,X7X7X7X7X2X>X@XD.D.}.#X#X|.M.V.V.N.A.D.|.&X=Xb.m.C.R.XX|.oX;X4X5X_.f.$.7.t.f.J.K.",
"T.T.J.B.k.p.p.p.b.|.=X#X,X,X#XV.C.V.oXoX|.V.#X6X6X2X,X*X.XA.n.n.#X-X,X-X}.n.V.M.V.b.V.C.{.|.R.k.7.p.j.k.k.p.w.5.+.$.$.w.t.J.P.T.",
"!.~.P.P.h.k.p.j.m.m.b.m.oX{.m.C.m.m.m.V.V.M.R.|.oX{.V.V.A.A.A.D.}.}.}.A.V.V.V.C.C.C.C.b.oX4X4Xj.' $.$.$.+.+.o.o.+.&.q.y.K.~.P.W.",
"(.T.P.P.J.H.a.g.g.a.p.7.8.7.p.t.p.p.p.j.j.B.m.V.C.V.N.{.*X,X,X2X,X,X2X2X,X:X*X&XoX{.m.C.;X0X4X(.+.+.+.%. .O.O.O.O.q.y.G.!.W.Y.(.",
"Y.T.(.P.K.K.H.a.t.y.w.w.q.6.5.5.$.+.5.$.4.7.k.m.m.m.b.R.=X:X:X:X:X6X6X:X:X:X:X;X+Xk.<.' p.k.$.' #.O.%...O. .O.%.*.y.G.K.!.~._.Q.",
"(.(.W.Y.T.T.K.G.s.s.y.y.y.r.q.6.*.*.$.$.$.$.5.6.w.w.7.w.r.t.t.t.k.l.l.p.7.7.6.5.$.+.o.) ) ) o.#.%.%.%.O. . .%.*.u.G.K.Y.~.'.(.Q.",
"Q.Q.(.W.W.!.K.K.K.H.F.F.F.y.y.r.r.r.r.r.r.r.r.t.u.y.y.y.y.y.y.u.r.a.a.t.r.r.q.q.&.&.%. . . .%.&.%.%.%.%.#.#.$.r.a.J.Y.W.Q.Q.Q.'.",
"Q.Q.(.W.W.~.Y.K.K.K.K.K.H.f.g.a.a.a.g.f.f.f.f.f.H.h.h.f.f.f.f.f.h.f.h.h.h.s.u.y.r.q.*.&.&.&.*.=.=.=.*.*.&.&.r.a.l.Y.(.Q.(.(.(.'.",
"(.Q.(.(.(.(.W.W.T.T.T.T.P.J.j.h.h.H.J.T.T.T.T.T.W.Y.Y.P.P.P.P.P.T.P.P.T.T.K.K.f.u.y.y.r.r.r.t.y.i.i.r.q.q.r.s.K.T.W.(.Q.(.(.'._.",
"'.'.(.(.(.(.~.W.~.W.Q.W.Y.T.T.P.P.T.Y.W.~.~.(.(.(.~.[.Y.!.!.!.!.Y.W.W.W.W.U.T.K.K.G.F.s.d.d.f.f.F.F.u.y.s.F.K.T.W.(.(.(.(.(._._.",
"'.'.'.'.(.(.Q.Q.Q.Q.Q.W.W.W.W.W.W.(.(.(.(.(.(.(.(.(.(.(.~.~.(.(.(.(.'.~.W.W.W.T.K.K.K.J.K.K.K.K.P.K.H.H.K.L.!.!.(.(.(.(.(.(._._.",
"_.(.(.(.'.(.(.(.~.W.W.~.~.~.~.~.'.'.'.(.(.(.'.(.(.'.'.'.(.(.(.'.(.(.(.Q.Q.Q.Q.~.Y.T.T.T.Y.W.W.T.T.T.P.P.T.!.!.U.(.(.(._.Q.(.'.(.",
"(.(.(._.'.(.(.'.(.(.~.~.~.~.^.^.(.'.'.'.(.'.'.'.(.'.'.'.Q.Q.Q.Q.(.(.'.'.'.Q.Q.W.~.Y.Y.Y.W.W.W.W.B.B.T.P.Y.U.~.~.'.(.(._.Q.Q.'.(."
};
