/* XPM */
static const char *xpm_[] = {
/* columns rows colors chars-per-pixel */
"64 64 134 2 ",
"   c #5A7E9B",
".  c #5E819D",
"X  c #61849F",
"o  c #68889F",
"O  c #5E82A0",
"+  c #6486A1",
"@  c #6887A3",
"#  c #6689A4",
"$  c #6B8BA5",
"%  c #6E8EA8",
"&  c #718FA6",
"*  c #718EA9",
"=  c #6E90AA",
"-  c #7191A7",
";  c #7392AA",
":  c #7996AC",
">  c #7C99AE",
",  c #7A97B1",
"<  c #7D9AB1",
"1  c #819BAF",
"2  c #829DB3",
"3  c #86A1B5",
"4  c #8AA3B6",
"5  c #85A3BA",
"6  c #8CA5B9",
"7  c #8EA8BB",
"8  c #91A7BB",
"9  c #95AABB",
"0  c #97AABB",
"q  c #95A9BA",
"w  c #90A9BD",
"e  c #92A8BD",
"r  c #91ABBC",
"t  c #93AABC",
"y  c #90A9BF",
"u  c #93A9BE",
"i  c #94A9BC",
"p  c #94ABBD",
"a  c #94AABF",
"s  c #92ACBD",
"d  c #97ACBD",
"f  c #96ADBD",
"g  c #95ACBE",
"h  c #97ACBF",
"j  c #96ADBF",
"k  c #97AEBE",
"l  c #94ABBD",
"z  c #99ACBB",
"x  c #98ABBC",
"c  c #98ADBE",
"v  c #99AEBF",
"b  c #98AFBF",
"n  c #9BAEBF",
"m  c #98AEBF",
"M  c #9BB1BF",
"N  c #9DB0BF",
"B  c #8CAAC2",
"V  c #95ABC0",
"C  c #96ADC1",
"Z  c #98ADC0",
"A  c #99AEC1",
"S  c #98AFC1",
"D  c #9AAFC0",
"F  c #9CAFC0",
"G  c #99AFC1",
"H  c #96B0C1",
"J  c #9BB0C1",
"K  c #99B0C2",
"L  c #9BB2C2",
"P  c #9EB1C0",
"I  c #9CB2C0",
"U  c #9DB3C1",
"Y  c #9FB2C1",
"T  c #9CB1C2",
"R  c #9EB1C2",
"E  c #9DB2C3",
"W  c #9FB2C3",
"Q  c #9EB3C4",
"!  c #9FB4C5",
"~  c #9DB2C3",
"^  c #A0B3C2",
"/  c #A2B3C3",
"(  c #A1B4C3",
")  c #A0B3C4",
"_  c #A1B4C5",
"`  c #A3B4C4",
"'  c #A2B5C4",
"]  c #A3B6C4",
"[  c #A3B6C5",
"{  c #A0B5C6",
"}  c #A2B5C6",
"|  c #A1B6C7",
" . c #A4B7C5",
".. c #A5B7C5",
"X. c #A5B6C6",
"o. c #A4B7C6",
"O. c #A6B7C7",
"+. c #A2B5C5",
"@. c #A6B8C4",
"#. c #A5B8C7",
"$. c #A6B8C6",
"%. c #A7B9C7",
"&. c #A5B8C7",
"*. c #A8BAC6",
"=. c #A9BAC7",
"-. c #A6B7C9",
";. c #A3B7C8",
":. c #A3B8C9",
">. c #A7B8C8",
",. c #A6B9C8",
"<. c #A7BAC9",
"1. c #A7B8CA",
"2. c #A6B9C8",
"3. c #A8B9C9",
"4. c #A8BAC8",
"5. c #A8BBC9",
"6. c #A9BBC9",
"7. c #AABAC9",
"8. c #A9BACA",
"9. c #A8BBCA",
"0. c #ABBBCA",
"q. c #AABBCB",
"w. c #AABCC8",
"e. c #ABBDC9",
"r. c #A9BCCA",
"t. c #A9BCCB",
"y. c #AABCCA",
"u. c #AABDCB",
"i. c #ABBDCB",
"p. c #ACBCCB",
"a. c #ACBECA",
"s. c #ABBCCC",
"d. c #ACBECC",
"f. c #A9BBC9",
/* pixels */
"e.e.e.e.e.s.q.q.0.0.0.e.e.e.*.%.<.<.<.%. . .` ` ` `  . . . . .%.%.%.0.0.0.0.0.<.0.<.%.0.0.0.0.<.<.<.0.s.0.e.d.e.e.e.e.p.d.e.0.p.",
"e.e.e.e.e.e.q.q.0.0.0.0.0.<. .` ( ( ( ( ^ Y Y N Y Y Y Y Y Y Y Y `  . .<.0.<.0.<.<.%.` %.%. . .` ;.;.0.0.0.0.e.e.e.e.e.e.e.e.0.p.",
"e.e.e.e.s.s.e.e.0.0.<.<.` ` ( Y Y Y Y Y T D c g g g D g g g g g c D Y Q ` ` ` ` ) Y Y Q Q Y Y Y ` ` `  . .<.0.0.e.e.e.e.e.e.e.e.",
"e.e.e.e.s.s.e.e.0.0.<. .( Y N D D c D g g g i t 8 7 8 7 8 7 7 7 8 8 t t i V V V i t 7 t t t s g g c T Y ) `  .0.0.e.e.e.e.e.e.e.",
"e.e.e.e.p.p.0.0.0.0.%.( T c g g g s t 7 7 6 4 4 6 4 6 3 3 3 2 2 2 2 3 3 3 3 3 2 3 2 2 2 3 3 4 6 7 i D D D M ^  .0.0.e.e.e.e.e.e.",
"e.e.e.e.p.0.0.0.0.<.` Y g t 8 7 7 6 6 3 2 2 2 2 2 2 2 2 2 < 2 < < < < > : : : : : : : : : > < 2 3 7 s g g g c Y  .0.e.e.e.e.e.e.",
"e.e.e.e.e.e.0.0.<.` Y g 8 6 4 3 3 2 2 > > > : : , > : : : : : : : ; : ; ; - * & * % & - ; - ; : > 3 6 7 i 9 9 z )  .<.0.<.e.e.e.",
"s.s.e.e.e.e.0.<.` Q D 8 6 2 2 < < > : : : ; ; ; ; ; ; ; ; ; ; ; ; ; ; * & % $ $ $ % % % % % - ; ; > 2 4 t i t 9 Y ` ;.<.<.e.e.0.",
"s.d.s.0.e.e.<.` Y g 7 4 2 > : ; * ; ; ; * % % % % % % % % % % * % % % % % % $ % $ % % % $ $ $ $ % ; > 3 6 7 t 8 9 F ^ `  .<.0.0.",
"e.s.s.0.0.<.( D i 6 2 2 > ; ; % $ % % % % % % % % % % % % $ $ $ % % % % % % % % % % % % $ $ $ @ $ % ; < 3 7 t t t x c Y ` %.<.<.",
"0.e.s.0.<.! g 7 3 2 : : ; ; % $ $ $ $ $ $ # # # $ $ $ $ $ $ @ $ % % % % % % % % % % % $ $ $ $ o o $ - : > 3 7 7 7 8 9 c ^  .%. .",
"0.e.0.<.` T 7 2 > : ; & % % $ # $ $ $ # + X X X + # $ $ $ $ $ $ % % % % % % % % % % $ $ $ $ $ o X # $ % ; < 3 4 6 7 t c (  . .` ",
"0.0.<.` Y t 3 > - - % % $ $ # $ $ # + + X . X X + # $ $ $ % % % % & - - ; ; ; ; % % % % % % $ + + + $ $ % : < 2 4 6 i Y ` %.%. .",
"0.0. .! D 7 2 : % % $ $ $ # # # + X . . . . X + # $ % % % % * * % % - ; ; ; ; ; ; ; % % % % $ $ + + + $ % ; : > 3 4 t T :.<.%. .",
"0.%.` T g 4 > - % $ $ # # + + # + . . O X + + $ $ $ % % & & * * ; ; ; ; ; ; ; ; ; ; * % % % $ $ @ + + $ $ % - : < 2 4 c | <.%.` ",
"0. .Y D t 3 : % % $ # + X X . . O . . + + + # % % % ; & & * ; ; ; ; ; ; ; ; ; ; ; ; ; * % % $ $ $ + + $ $ $ % ; > > 3 s ! <. .^ ",
"%.` U c 4 > ; % % $ # + .     . . O . + $ $ % % & - ; ; ; ; , , , , : : ; ; ; ; ; ; ; % $ $ $ $ # # # # $ $ % % ; : < 7 ~ | %.^ ",
"%.` Y s 4 : ; % $ # + + .     .   . . + $ $ ; ; < > : < 2 2 < : , ; : ; ; ; ; & ; ; ; % $ $ $ $ $ $ # $ $ $ $ % & ; : 3 C ! ;.( ",
"o.` T t 2 : & % $ # + . .         + # % * ; < 2 6 6 5 5 3 2 , ; ; ; ; * * % % % % % % % $ $ $ $ $ $ $ $ $ $ $ $ % ; : 2 t T ` ( ",
"o.` T 7 2 ; * $ $ $ + .           + # % ; ; 2 6 7 7 6 3 < ; ; ; ; ; % $ $ $ $ $ % % % % $ $ $ $ $ $ $ $ $ $ $ % * ; : 2 7 C Y ^ ",
"o.U T 7 1 - & $ $ $ +           + # $ ; ; , 6 V V 7 3 > : ; & & % $ $ + + # $ $ % % % % $ $ $ $ $ # $ $ $ $ $ $ % ; : 2 6 g c Y ",
"o.U D 7 1 ; & $ $ $ +   .       + $ % ; ; < 6 7 6 3 > : ; * % % $ $ + + + $ $ $ % % % % $ $ $ $ $ $ $ $ $ $ $ $ % % ; > 3 7 i Y ",
"o.U D 7 2 ; * % $ $ + . .     . + $ % ; : : < < > : ; - % % $ $ + + # # $ $ $ $ $ $ % % $ $ $ $ $ # # $ $ $ $ $ $ % ; : 2 6 i Y ",
"o.U C 7 2 : * % $ # + X +     . # % % ; ; ; ; - & & % % $ $ + + + + # $ $ $ $ # $ $ % % $ $ $ $ # # # $ $ $ $ $ $ % ; : 2 4 t Y ",
"` U D 7 2 : * % $ $ + X + .   . # $ % ; ; ; ; % % % $ $ $ + + + # $ $ $ $ $ # $ $ $ $ $ $ $ $ $ $ # # $ $ $ $ $ % % ; : 2 4 D Q ",
"` U D 8 2 : ; * $ $ + + + O . X $ % % ; ; * % % % $ $ # + + + # $ $ $ $ $ $ $ % $ $ $ $ $ $ $ $ $ # $ $ $ $ $ $ $ $ * : 2 6 D ! ",
"` U D t 4 2 : ; % $ # + + X + X $ $ ; ; * % $ $ $ # # + + + # $ $ $ $ $ $ $ $ % $ $ $ $ $ $ $ $ o $ % $ % % $ # $ $ * ; > 6 T ` ",
"` Y D t 6 2 : ; % % # # + + + X $ % ; ; % % $ $ # # # # # # # $ $ $ $ $ $ $ $ $ $ $ $ $ $ $ $ $ $ % ; ; % % $ # $ % & ; > 4 Q | ",
"` ( T g 8 3 < : ; % $ $ # + + + $ % ; ; % $ $ $ # # # # # # $ $ $ % % % $ $ $ $ $ $ $ $ $ $ $ $ & ; : : ; - % % % % & ; > 6 Q <.",
"%.` T g t 6 2 > ; - % $ $ $ # + $ % ; % % $ $ $ $ $ # + + # $ $ $ $ % % $ $ $ $ $ $ $ # $ $ $ % ; > 2 2 , ; % % $ % - ; > 6 Q <.",
"%.` Y C i 7 5 2 > - % % $ $ % $ $ * * % $ $ $ $ $ $ + + + $ % % % % % $ $ $ $ $ $ $ $ # $ $ % ; : 2 5 2 : & % $ % % ; : > 6 Q ;.",
"%.` Y c g t 6 3 < : & % % % % % % % * % $ $ $ @ @ + + + $ % % $ & % % $ $ $ $ $ $ $ $ # $ % ; ; < 3 5 , & $ % % % ; ; : > 4 D ! ",
"%.` ) D g t 7 6 2 : ; ; & * * % ; % % % % # # # + @ @ $ % % $ & ; ; % % % $ $ $ $ $ $ $ % ; ; ; 3 5 2 : $ % % $ % ; ; ; : 2 8 Q ",
"%.` ) F g t 7 4 2 : : ; & & * % % = % $ $ $ # + $ + @ $ $ $ ; 3 < ; % $ # # # $ # # $ % ; ; > < 2 > ; % $ $ $ $ ; ; ; : : 2 8 T ",
"<. .) Y g t 4 3 2 2 : : ; ; & - % = = $ $ $ # X + $ % $ % < 5 2 ; % $ $ $ $ $ # + $ % % ; ; < < : & $ $ $ $ $ % ; ; ; : : 2 7 C ",
"<. .` T g t 4 2 2 2 < : ; ; ; & = % = = % # + + $ $ $ % , 5 5 ; $ $ # $ $ $ + + # $ % % * ; ; ; % $ $ $ $ % % % ; ; : : : 2 6 t ",
"<.%.` Y C t 4 2 2 2 < > ; ; ; ; ; = % % $ o o # % % % ; , ; % % % $ $ $ # + + + # # $ % % % % $ @ $ $ $ $ $ % % ; ; ; ; > 2 6 V ",
"<.%.` Y g t 4 3 2 2 < : ; ; ; ; ; ; % $ o o $ $ % ; ; % % % $ $ $ $ $ $ + + + + + + $ $ % % $ $ $ $ $ $ $ $ $ % ; : ; : : 2 8 S ",
"<.%.! Y g t 4 3 2 2 > : ; ; ; ; ; ; % $ o $ $ $ % % $ $ $ $ $ % # # # + + . . . + + $ $ $ $ $ $ % $ $ $ $ $ % = ; ; ; : > 3 t ~ ",
"<. .! T g 7 4 3 < < > : ; ; ; ; ; % $ % % % $ $ % $ $ $ $ # $ + + + + X . . + + + # $ $ $ # $ % # $ $ $ $ $ % % ; ; ; > 2 3 8 ~ ",
"%.` Q D g 7 4 2 < : : : ; ; ; ; * * * % % $ $ $ $ $ $ $ $ + + + X . . . . . + + # # $ $ $ $ $ $ $ # # # $ $ % ; ; ; : > 2 2 8 ~ ",
"%.` Y c i 7 3 2 < > : ; ; ; ; & * * * % % % % $ $ $ $ # + + X . . . . . . + + # # # $ $ $ $ $ $ # # # # $ $ % ; ; : : > 1 2 t ~ ",
"%.` Y g t 4 2 2 < : ; ; & & & & & & * * % % % % $ # + X X .       . . . + + # $ $ $ $ $ # # $ $ # # $ $ % % % % - ; : > > 2 t ~ ",
" .` T g 7 3 2 < : ; ; ; & & & & ; & * * ; % % $ $ + . .     . . X + + # # # $ $ $ $ $ $ # # $ $ $ $ $ % % % $ $ % - ; > > 2 t T ",
"` ^ D 9 7 3 2 > ; ; ; ; ; ; * * ; & & - ; % $ # + X     . . X + + # $ $ $ $ $ $ $ $ $ $ # # $ $ $ $ $ % % $ # # @ % ; > 1 4 g Y ",
"^ Y c t 8 4 2 > ; ; ; ; ; ; * * ; ; * & % $ # + + X . X + # # # $ $ $ $ $ $ $ $ % % $ $ $ # # $ $ $ $ $ # + + + + % ; > 2 6 T ` ",
"( Y c i 8 4 2 : ; ; ; ; ; ; * * ; - ; & % $ # # + + + # # # $ $ $ $ $ $ $ $ % % % % % % $ $ # # # + + + + + + + + % ; > 2 7 ~ ` ",
"` ) D g 8 4 < : ; ; ; % ; ; * ; ; - & % $ $ # $ $ $ # $ $ $ $ % $ $ $ $ $ $ % % ; ; ; % $ $ # # X . .     . + + # % ; > 2 7 T ! ",
"` Y D g 8 3 2 > ; ; ; % % % ; ; ; % % % % $ $ $ $ $ $ $ # $ % % ; % $ $ $ $ % ; ; ; = $ $ # + X .     . O O + + $ % ; : > 4 T ! ",
"<.` Q D t 4 2 > ; ; ; % % ; ; ; & % % % % $ $ $ $ $ # $ $ $ % ; ; ; ; ; ; ; ; - & & % $ $ # + X . . . . + + + # $ % ; : 2 4 D Q ",
"<.` Y D t 4 2 < ; ; ; & * ; ; ; = % % % % $ $ $ $ $ $ $ $ $ $ ; ; , < < , > ; - $ $ $ $ $ # + . . . X + + + + $ $ $ ; > 3 t Q ` ",
"%.` Y c i 7 2 2 : ; ; & ; ; ; ; % % % % $ $ $ $ $ $ $ $ # # $ $ ; < B B B 5 : $ $ $ $ $ $ # + X + + + # # + # $ $ % : 2 4 g ) ` ",
"<. .` Y C t 4 2 > : : - ; ; ; & ; % % = % % $ $ $ $ $ $ $ $ $ $ & : < , , ; % $ $ $ $ $ # # + + # # $ $ $ # $ % % ; > 3 t T ` ^ ",
"<. .` Y D t 6 3 2 > : : ; ; ; & * ; ; ; ; % $ $ $ # $ $ % $ $ $ $ & & $ % % $ % $ $ $ # # # # # % % % % $ $ % & % : 2 7 D `  . .",
"%.%.` ^ T g t 6 3 2 2 > > : ; - ; ; ; ; ; - % % % $ % - ; - & & % & & $ % % % % % $ $ $ # # # % = = ; % % % % & - 2 6 g ` <.<.0.",
"%.%. .` ` Y D t 7 4 3 2 2 < : : : : ; - ; - & - ; : : : : : : : : ; - - - ; ; - % % $ $ # # $ % = ; ; ; % % & & > 4 g Q <.0.<.0.",
"0.0.%. .` ` Y g t 7 7 6 4 3 2 > 2 : : : : : : : 2 < 2 2 2 2 2 2 2 2 2 2 > > : : ; % $ $ $ $ % ; ; ; ; & % & ; > 7 C `  .<.e.0.e.",
"0.0.0.%.%. .` Y T T C s t 7 4 3 4 2 3 4 3 3 4 4 6 6 4 4 6 6 6 4 7 7 7 6 6 3 2 2 : : - % % & ; ; ; : ; ; & - : 2 t Y  .%.0.0.*.e.",
"0.0.0.%.<.<. .` ` ! Q T D g i t 8 t g g g g C g T D C g g g C C g D D H C V 7 6 3 2 > : : : > < 2 > > : : : 2 t T ` 0.0.0.0.0.e.",
"e.0.0.0.0.0.<.%.;.| ` ! ! Y D g c T Y ! ! U ` ` ;.` ` ! Q Q ` ! ` ` ` ! ! ~ C g t 7 4 3 2 3 4 6 4 4 2 2 2 3 t T ` <.0.0.0.e.e.e.",
"e.e.0.0.0.<.<.%.<.<.<.%.%. .` ( `  .%.<.<.<.<.<.<.%.<.%. .%. .%.%.%.<.<.<.:.` Q D g g i i s g C g t 8 7 t g T ` %.0.0.0.0.e.e.e.",
"e.e.e.e.0.<.<.<.<.<.<.<.<.<.%.%.<.<.<.<.0.0.0.0.0.0.0.0.0.0.<.<.0.0.0.<.0.<.<.| ` Y Y Y Q U ! ! Q Q D T T ! `  .0.0.0.0.0.e.e.e.",
"e.e.e.e.e.0.<.0.%.%.%.%.%.%.%.0.<.e.0.%.0.0.0.0.0.0.0.0.0.0.0.0.0.*.*.%.0.0.0.<. .` ` `  .o.%.%.;.` ` U ` o.%.%.0.<.0.p.0.e.e.e.",
"e.e.e.e.e.0.0.e.0.0.0.%.%.0.0.0.0.s.e.0.e.e.0.e.0.0.0.0.0.0.0.e.*.0.p.0.0.0.0.0.<. . . .%.%.%.%.;.;.o.` ` o.<.<.e.<.0.p.e.0.e.0."
};
