/* XPM */
static const char *xpm_[] = {
/* columns rows colors chars-per-pixel */
"64 64 223 2 ",
"   c #0C263C",
".  c #0E293E",
"X  c #0C2637",
"o  c #132634",
"O  c #152835",
"+  c #1A2A35",
"@  c #13263A",
"#  c #132A3C",
"$  c #1A2D3B",
"%  c #1A2531",
"&  c #1E313E",
"*  c #16303F",
"=  c #13272E",
"-  c #0D2A41",
";  c #0E2741",
":  c #132D42",
">  c #192E41",
",  c #153145",
"<  c #1C3244",
"1  c #15334A",
"2  c #1B354A",
"3  c #1D394D",
"4  c #1D3B51",
"5  c #173952",
"6  c #223544",
"7  c #243B4C",
"8  c #2B3D4C",
"9  c #263847",
"0  c #223D53",
"q  c #2C3F50",
"w  c #1D4056",
"e  c #2E404E",
"r  c #34414E",
"t  c #254156",
"y  c #2B4356",
"u  c #26445A",
"i  c #2A445B",
"p  c #2A4A5D",
"a  c #324554",
"s  c #3A4954",
"d  c #334A5C",
"f  c #394B5B",
"g  c #2E4B63",
"h  c #2D4F6A",
"j  c #324C63",
"k  c #304F6B",
"l  c #355065",
"z  c #3C5264",
"x  c #35536A",
"c  c #39556A",
"v  c #3E586E",
"b  c #3D5C71",
"n  c #41525D",
"m  c #454F5B",
"M  c #445B6C",
"N  c #4C5F6C",
"B  c #455565",
"V  c #525D6A",
"C  c #435E74",
"Z  c #4B6274",
"A  c #45627A",
"S  c #4B657C",
"D  c #4A687C",
"F  c #456177",
"G  c #536879",
"H  c #51626C",
"J  c #4D6B82",
"K  c #516E85",
"L  c #596F81",
"P  c #546E89",
"I  c #53728A",
"U  c #5A758B",
"Y  c #5D788D",
"T  c #597184",
"R  c #5C7B94",
"E  c #5B7E9A",
"W  c #567793",
"Q  c #637788",
"!  c #717F8B",
"~  c #627D94",
"^  c #617E99",
"/  c #5E819C",
"(  c #73828B",
")  c #64849C",
"_  c #6A869D",
"`  c #6B899E",
"'  c #6A8194",
"]  c #748A9C",
"[  c #788A96",
"{  c #5E84A1",
"}  c #6385A1",
"|  c #6A87A1",
" . c #6689A4",
".. c #6B8BA4",
"X. c #668DA9",
"o. c #6C8EA9",
"O. c #728EA5",
"+. c #738EA9",
"@. c #6D91AB",
"#. c #6E91A7",
"$. c #7491A6",
"%. c #7C94A6",
"&. c #7492AA",
"*. c #7A95AB",
"=. c #7D99AE",
"-. c #7498AE",
";. c #6F94B1",
":. c #7496B1",
">. c #7996B1",
",. c #7699B3",
"<. c #7C9BB3",
"1. c #7C9EB9",
"2. c #7DA1BB",
"3. c #7FA4C1",
"4. c #89979E",
"5. c #829BAE",
"6. c #8898A5",
"7. c #839DB2",
"8. c #829FB9",
"9. c #889FB1",
"0. c #85A1B5",
"q. c #8AA2B5",
"w. c #83A3BB",
"e. c #8CA5BA",
"r. c #8EA8BC",
"t. c #93A5B5",
"y. c #91A7BB",
"u. c #94ABBD",
"i. c #9AADBC",
"p. c #9AA9B6",
"a. c #9CB0BE",
"s. c #90A2AE",
"d. c #A3B3BE",
"f. c #AEB7BE",
"g. c #A4AEB7",
"h. c #83A6C2",
"j. c #86A9C3",
"k. c #8BAAC2",
"l. c #8AAEC9",
"z. c #8BA7C1",
"x. c #94ADC2",
"c. c #9AAFC1",
"v. c #90AFCB",
"b. c #8EB2C9",
"n. c #93B1C6",
"m. c #9DB2C3",
"M. c #94B4CC",
"N. c #9BB5CB",
"B. c #9FB8CC",
"V. c #95B7D1",
"C. c #9CBBD3",
"Z. c #99BCD7",
"A. c #A3B5C5",
"S. c #AAB7C4",
"D. c #A6B8C6",
"F. c #ABBAC6",
"G. c #A3B6C8",
"H. c #A6B9CA",
"J. c #AABCCA",
"K. c #B1BBC6",
"L. c #B1BDCA",
"P. c #A6BED3",
"I. c #9EC2D9",
"U. c #ADC1CE",
"Y. c #B3C2CC",
"T. c #BAC5CE",
"R. c #ACC3D3",
"E. c #A5C5DB",
"W. c #AAC6DB",
"Q. c #ACCADE",
"!. c #A6CBDE",
"~. c #B3C4D2",
"^. c #B9C6D3",
"/. c #BCCAD5",
"(. c #B4CBDD",
"). c #BBCCDA",
"_. c #B4C8D6",
"`. c #BED1DF",
"'. c #ACCBE3",
"]. c #A4C8E3",
"[. c #B4CEE3",
"{. c #ADD4EC",
"}. c #B3D3EB",
"|. c #BAD6EC",
" X c #BAD5E9",
".X c #BCDAF3",
"XX c #B6D9F3",
"oX c #C3CDD5",
"OX c #C3CDDA",
"+X c #C5D2DC",
"@X c #CBD4DB",
"#X c #CCD5DC",
"$X c #D2DADE",
"%X c #D1D5DB",
"&X c #C1C1CB",
"*X c #C4D4E2",
"=X c #CBD6E1",
"-X c #CCDAE4",
";X c #CDDDEB",
":X c #C6D8E8",
">X c #D3DCE4",
",X c #D7DFE6",
"<X c #C1DCF1",
"1X c #D4E2ED",
"2X c #DBE3EB",
"3X c #DFE8EE",
"4X c #D9E1E7",
"5X c #C9E2F5",
"6X c #D4E4F2",
"7X c #DBE7F0",
"8X c #DDEAF4",
"9X c #DCEAF8",
"0X c #D9E8F6",
"qX c #DFF0F8",
"wX c #E2E7ED",
"eX c #E3EAEE",
"rX c #E3ECF3",
"tX c #E4EEFA",
"yX c #EAEEF7",
"uX c #E6F1F6",
"iX c #E9F1F6",
"pX c #E6F2FB",
"aX c #E9F1FA",
/* pixels */
"J.J.J.J.J.J.J.J.J.J.J.J.J.J.D.D.H.D.D.D.D.D.A.A.A.A.G.G.G.G.G.H.D.D.J.D.D.D.J.J.J.D.J.D.D.D.H.H.H.J.S.K.&X%XwXyXrXpXrX2X=XY.U.H.",
"J.J.J.J.J.J.J.J.J.J.J.J.J.J.D.D.A.A.A.A.A.m.m.m.m.m.m.m.m.m.m.m.A.A.D.D.J.J.H.H.D.H.D.D.D.D.G.G.A.J.^.>XaXyXaX7X( s r g.rX=XJ.J.",
"J.J.J.J.J.J.J.J.J.J.H.H.D.A.A.A.m.m.m.m.m.c.c.u.x.u.c.u.i.i.u.u.c.c.m.A.A.A.A.A.m.m.c.G.c.A.A.A.F.+XrXtXpX@X+ O < Z f O OX2X).J.",
"J.J.J.J.J.J.J.J.J.J.H.D.A.m.a.a.i.i.i.i.u.u.u.u.y.y.y.y.y.r.r.r.y.y.u.u.u.u.u.u.u.x.x.r.u.i.p.F.,XrXpXpXa o G R.5X5X5XQ % tXOXL.",
"J.J.J.J.J.J.J.J.J.J.D.A.m.i.u.u.u.u.y.y.r.e.e.q.q.q.q.q.q.0.0.0.0.0.0.0.0.0.q.9.7.7.7.0.q.s.d.3XuXtX=XO o 8 B..X.X.X(.q.% >X+XK.",
"J.J.J.J.J.J.J.J.J.H.A.m.u.u.y.r.r.e.q.7.7.7.7.7.7.7.7.7.7.7.<.<.=.=.=.=.=.*.*.*.*.*.&.*.%.i.2XrXrXH $ o L S ' R W ^ r.R.+ >XOXL.",
"J.J.J.J.J.J.J.J.H.A.m.u.y.e.q.0.7.8.7.<.=.=.*.*.*.=.*.*.*.*.>.*.&.&.*.$.&.&.&.o.o...+.$.m.0XrXtX9 o > _ 0 2 i 0 p e.R.[ O 8X~.D.",
"J.J.J.J.J.J.J.H.A.m.c.y.q.7.7.<.<.>.*.&.&.$.$.$.$.$.$.$.&.&.&.&.+.+.$.+.+.........+.O.q.6X0XtXm @ t ~ 3 , 0 0 0 S M.y.$ = 8X~.J.",
"J.J.J.J.J.J.H.A.m.u.r.q.7.=.*.&.&.&.&.&.&...o.@.#.#...&...$.+.$.+.$.&.&.$.O.O.] ] ] t.6X9XtXOX@ d S 2 : 4 g 3 b R ~ d o O 0X~.J.",
"J.J.J.J.J.H.A.c.u.e.7.7.=.&.&...........o..... .o.......O.O.$.<.0.x.m.B.G.m.m.i.p.d.4X7XaXtX$ # C : : g u g x l p y M o ( 1XJ.D.",
"J.J.J.J.H.m.u.r.0.7.*.*.$.&................. . .......O.*.0.y.m.G.H.H.U.~.).+X-X,XwXwXeXrXs.o f , : 1 J 4 u j 4 i z # O 9X*XJ.G.",
"J.J.J.H.A.m.r.7.=.*.$.+.o...............} / / }  .o.<.r.m.m.H.A.D.U.Y.).)._.*X1X7XrXrXiXpX+ $ < # # 2 0 3 t 3 0 2 Z o n 9X).J.A.",
"J.J.H.D.m.u.0.=.$.$......... .......} ) ) ) ) ..=.x.H.H.D.J.U.~././.N a 8 q 6 < 6 6 B 9XtX9 8 # : D A 2 3 0 0 > i # o pX7XF.D.D.",
"J.J.D.m.c.r.7.*........... . ...} } ) ) ) _ =.m.J.J.~.~.).).*X*X! B f z G G M B L 9 @ @ _ d i 1 : c 3 2 2 0 1 2 > o L.rX4XK.D.m.",
"J.D.A.m.u.q.=.$....... . .} }  .{ } E ^ $.x.J.~./.+X+X=X-X:XG B B z L M j M T G G Z t 0 h I F u t 0 2 : t 0 < * o n tXaX2Xf.S.A.",
"J.D.A.c.u.0.*....... .} ) ) / / } E } 8.G.R.).*X^.[ s 9 e s a z z d l d 0 3 7 < 1 0 u ) .. .I W _ 0 : 0 i 0 , . 8 pXpXiXeX$XF.d.",
"D.D.A.x.q.5.$..... . .} / / E ) ^ _ r.P.(.[.a < $ $ 6 z z d d M z 2 : : 2 0 p i x ` ` ..w.<.&...K 3 4 u i : - : 1 8 8XiXeXwX^.A.",
"D.A.m.x.q.=.$.......} } / E E R _ x.R.(.y < < < M L N d d y y 3 > , 3 t u 4 b ...._ ..w.&.@.j.k._ K h t 2 . 2 0 0 # 9 ( uXrX-XS.",
"D.A.m.u.7.*.+..... . .{ E E E ..x.R.[.< > ' y d z d d M > > . # 7 7 p 0 x ..&...k.w.} / ..o...w.+._ U D 1 . 1 : - Y G n 4.rX4XF.",
"D.A.m.r.7.$.+..... . ./ E E _ r.R.[.< > M 2 7 7 < < < #   : : 3 0 t A ..` j..X1...&.../ o.@. .].Z...) p : , : . K c Y 9 s tX=XS.",
"D.A.m.r.=.$.........{ / E ) 0.P.(.z # d # # # # # > : : 1 , 2 2 F ..` w.l...@.} R  . .o.j.h.X.l.l.M.R u # . . x I p Q @ 9 tX+Xd.",
"D.A.c.r.<.$....... .} E ) 7.A._. X# z < # > # # >   : , , : A &...) R b.l.j.} 2. . .j.h.o.;.l.X.{.XXK u : # 3 p . p 7 o *X6XJ.a.",
"D.A.c.r.7.$.+..... .} / &.n.J.).Q # 7 2 # # : # : , 3 3 g w.0.<.......].@.} R o.) XX} o...w.Z.@.b.!.U i 2 7 < p 7 < o V 9X^.i.a.",
"D.A.x.r.8.*.+.....o.}  .w.G.~.+X$ # # # # . # : 3 0 0 w.N.M.<.| ..) 2.Z.@.} }  .E XX&.....} 1.o.1.b.R > > 7 a y < $ Z 0X*Xu.u.m.",
"A.m.m.r.8.*.+.......} >.x.H.^.-X# # # # . # , 0 i ) M.C.V.j.>.E } { ;.:.V.2.}  .W ) .._ u 4 I k.&.` c # a 8 8 s N ;X0X).q.q.i.m.",
"A.m.x.r.0.=.$.$.......0.u.D.OXY.# : . # . 2 0 b r.C.C.&.<.j.,.,.o.X.{ 3.I. .} } ) _ 2 - 2 2 : w.$.`   O _.qXpXpX7X6XR.%.5.q.A.A.",
"A.A.c.y.q.7.*.$.+...=.y.A.~.+X8 # . : . : 4 $.M.P.w.&.2.@.-.o.,.,.X.{  . . .o...` : : Y u.j . ` ..Y # & 8XuXrX7X7XD.] %.=.r.a.A.",
"A.A.m.u.q.7.=.$.O.O.y.a.J./.;X$ # - . : F 0.C.M.<.@...w./ / ,.].3.h. .@.o.E ..` . Z r.H.U     ` ^ - # ! rXrX2X=X~.6.%.&.5.q.A.D.",
"A.m.c.u.y.q.<.*.O.5.A.F.Y.=X1X< : : : _ 8.v.k.>.M.j.:.j.,. .E.XX .3.X.:.j.) ... 0 r.H.~ d   c x x . O rXwX>XOX~.u.O.O.$.=.r.m.D.",
"H.m.i.i.u.r.8.=.=.A.F.T.+X1X6X> . 2 ..<.w.w.&.&.2.2.@.l.@.) o.-.o. . .w.V...- - i Z z 3 > . _ t 2 : B wX4X@XU.x.*.$.+.*.<.q.m.D.",
"H.A.m.i.u.y.0.7.q.~.+X@X,X-X#   C ..<.w.>.o...) R ..Z.o.R ,.:.h.@.,.>. ...A - - 3 0 > 2 # , c j : @ rX3X#XJ.u.7.&...&.*.=.r.c.H.",
"G.G.A.i.u.t.r.r.R.*X-X=X! o . _ $.k.w.8.k.<.../ / {.XX..o./ E  ./ -.,.w._ -   , : 0 : 2 : Y t i @ B tX>X^.a.7.>...&.&.$.<.0.m.m.",
"G.G.m.c.i.p.t.~.-X;X~.7 # > ` n.v.w.....w.@.,. .o.l.....o.E W @.o.o.}.C.g X i   : 2 0 : 0 l j # % rX7X+XH.q.*...o.&.$.$.*.7.u.m.",
"H.m.B.c.p.p.U.*X;XD.& X i 7.[.'.w...I ......&. .o.) /  .&.o.R X.X. .-.I.1 1   . : i : : ' i C # V rX>X~.u.=.>.o.&.*.*.$.=.7.r.m.",
"H.G.G.m.p.S.`.;XD.& # l x. X[.*...F 1 ....} o.w. . .E 2.w.R I )  . .n.E.0     : : 3 - I 0 j   o tX4XOXA.7.*...o.&.&.*.*.=.7.e.x.",
"H.A.m.i.d./.:XU.$ o d u.[.'._ .._ : - _ ......,.) ..} / ..} J h 5 w | +.; . . . 3 , t U 2 i # 6 7X=XJ.q.7.+...o.&.&.*.*.=.7.q.x.",
"H.J.m.A.F.-X6X# $ > x.Q.N._ ....2 . 4 ....` 1.,. .,.1.o.} / ..R 4 - - ) 1 ;   , : 0 ..0 i @ $ ;X;XY.i.5.$.+.....&.*.*.*.=.7.q.x.",
"D.A.A.A./.-X7 # @ =.|.E.........- - I ..) ....R ,.&. .} E } ..) ) x - ^ ..: : - , ` J 0 # # e 1X).A.9.*.+.+.....&.&.*.=.<.8.r.x.",
"D.D.A.D.+X-X< @ G (.5X$.| ..| ..- . ..` I ) ..<.1.@.}  .) ..........- x | i : - b _ c 2 # $ 1X+XA.r.*.$.......&.&.*.*.*.=.0.r.m.",
"D.A.A.~.-X-X# : _ <X X` .._ ..I : . - - - - ..) ) o.j.....A J 1.k...- j | ^ 3 0 ` U i # # 6X:XU.u.=.$...| ....&.*.&.*.*.=.0.r.m.",
"D.D.A./.=X/.#   &.|.C.` _ : . - . . - : x ) ) ......&...J t - *.r._ . I &.k.~ ) D v > # ' ;X_.i.8.&...........o.&.&.*.=.7.7.r.m.",
"D.D.S.).=X6.# . 8. Xr.b 2 . - - . R _ ` _ ..........w.k...R - ~ $.D - ` 0.<.) K j i @ $ ;X).D.q.*.&.........o.&.&.&.*.=.7.7.u.m.",
"H.D.J.OX=X( # - w.}.n.J J ` _ - - | ................0.<.w.w.  ) ..:   ` Q.w.) u 0 # > 6X*XJ.t.5.&.......o.o.o.@.&.&.*.=.7.7.y.m.",
"D.A.J.+X=X4.# . *.W.n..._ ` ..- - | ..) ........ .&.'.<.N.w.  ) P : , _ ....c 2 > # c.*XJ.y.7.$.o.o...o.o.........&.$.=.=.7.y.m.",
"A.A.L.OX>XK.# . +.'.M._ ) ` ) - c ............) ....1.&.M.w.  ) J : 1 ` ` v 2 t # z :XR.u.5.&.$.......o.o. . . . ...$.=.7.q.u.m.",
"m.A.~.OX$X@X# : 8..XE.O._ ..x 1 ..................o.) | M.A - _ ) : J ..c . # $ < :XR.u.7.*....... . ..... .} } } o.&.=.7.q.m.A.",
"m.D.^.@X$X>X# 2 z.|.E.O...| } k ............ . ...) ....*.  - +.F 1 ..u   @ # $ *XU.m.q.*.$.....} } ) ) } } } } } o.&.=.7.r.m.D.",
"A.D./.#X%X2X# 4 k.|.W.$.O._ ............x h E ) ..} ..| ..: j ..l j - : : # < ~.R.m.r.5.$.....} ) ) / E / / ) )  .@.&.=.7.r.m.A.",
"A.J./.@X>X1X> 0 z.}.Q.*._ ` ..........4 - p ) ) _ _ ......g _ _ 4 . : , # > i.U.m.y.7.*.+...} } / E E / { { ) } ..o.&.&.<.e.m.m.",
"H.J.OX@X=X1X6 4 j.}.Q.&.............1 - 1 ) ) ) ...._ ......~ - : # # X < H.U.i.y.0.=.$... .} / / / / / } } }  .....&.*.7.q.c.m.",
"D.D.oX#X>X1X6 3 8.].C.<.O.........i : - ..) .... . .....) - - : # X # M (.H.m.r.=.*.+..... .} { / / ) } } } } ......&.=.0.u.m.A.",
"D.Y.oX%X$X,Xf 1 ..C.C.<._ ......D : - _ ..........) C : - . #   # [ :X`.R.R.q.7.+..... . . .} } } } }  . .}  .......*.7.q.u.A.A.",
"A.F.oX#X,X4XH > F M.v.<.&.....x - : Y .._ _ ) _ j , . # # # 7 _.*X).~.H.m.e.$..... . . . . . . . . ....... .......&.=.0.u.m.A.A.",
"D.F.@X#X$X4X6.# g <.8.:...| g - - j U C > #   # # # o a ).;X;X).J.m.i.q.%.$..... . . . . . . .....o.o.o.......+...*.7.r.c.A.D.D.",
"A.J.oX>X#X2X1X# 1 &.>.+...g   : 2 # # o # $ 6 s p.1X6X;X=X).J.D.i.y.=.$.O.......o....... .` ....@.@.&.o.....o.+.$.7.q.u.A.H.J.J.",
"G.J./.>X,X4X0X# > U ..J : # # < # O $ D.9X7X7X4X>X@X+X/.Y.J.i.t.7.*.$.&.*.&.&.&.o...............&.&.&.&.....+.+.=.q.u.m.H.J.J.J.",
"G.H./.>X4X4X8X+ # # : # # $ B [ =X9XtXrXrX4X,X#X+X/.Y.J.A.u.q.7.7.7.7.7.<.=.*.&.&.o...........$.&.&.&.+...O.$.=.r.x.m.G.H.J.J.J.",
"J.J.L.=X4X3X7Xs + o $ 9 +X7XtXrX3XrXrX3X4X>X#XoXT.J.d.p.y.r.e.e.e.r.r.r.q.0.7.7.*.*.&.......&.*.*.*.*.$.+.$.=.7.u.m.D.D.J.J.D.J.",
"J.J.K.oX4XwXrX3X7X8X7XtXrXrXwXeXrXrX2X,X+XT.F.S.A.m.i.u.u.x.x.x.x.c.c.c.u.u.y.q.7.7.=.*.&.&.<.<.<.=.=.=.*.=.7.y.m.A.H.J.J.J.J.J.",
"J.F.F.L.oX3X3XwX3X7X3X7X3XwX2X4X$XoXY.F.S.A.A.A.A.A.G.G.m.m.m.m.m.A.A.m.A.m.i.u.y.r.q.0.0.0.w.w.q.q.7.7.7.q.u.m.A.H.J.J.J.J.J.J.",
"D.L.F.K.K./.,X4X4X4X3X4X4X@XT.K.S.d.A.D.D.H.H.H.H.H.H.H.H.D.D.D.G.H.H.D.D.D.A.m.c.x.u.u.x.x.x.x.x.u.y.r.y.u.m.A.D.J.J.J.J.J.J.J.",
"J.D.J.J.F.D.K.Y.T.T.Y.L.K.S.S.F.D.D.J.J.H.H.J.J.H.J.H.J.J.J.D.D.J.J.J.J.D.D.D.D.m.m.m.m.m.m.m.m.m.m.c.m.m.m.A.D.J.J.J.J.J.J.J.J.",
"J.J.J.D.J.D.D.J.S.D.D.D.J.J.H.H.J.D.J.D.J.J.J.J.J.J.J.J.J.J.J.J.J.J.J.J.H.H.H.H.D.A.A.A.D.D.D.D.D.A.A.m.A.A.D.D.J.J.J.J.J.J.J.J.",
"J.F.J.H.J.J.J.H.J.D.D.D.H.J.P.H.J.J.J.J.J.J.D.J.D.D.D.D.J.J.J.J.J.J.J.J.J.J.J.H.H.D.D.D.D.S.S.S.D.G.A.A.A.A.H.H.J.J.J.J.J.J.J.J."
};
