/* XPM */
static const char *xpm_[] = {
/* columns rows colors chars-per-pixel */
"64 64 199 2 ",
"   c #010103",
".  c #00040B",
"X  c #04090D",
"o  c #0A0A0C",
"O  c #09070A",
"+  c #10100E",
"@  c #000512",
"#  c #010A13",
"$  c #0B0E11",
"%  c #010E1B",
"&  c #0C1013",
"*  c #03131D",
"=  c #0B141C",
"-  c #131313",
";  c #1B1B1E",
":  c #14191D",
">  c #041423",
",  c #0E1E29",
"<  c #131C22",
"1  c #131E2A",
"2  c #1A1E21",
"3  c #071E30",
"4  c #1D2226",
"5  c #16222B",
"6  c #182430",
"7  c #1B2931",
"8  c #1A2A39",
"9  c #252626",
"0  c #262827",
"q  c #25272A",
"w  c #29292C",
"e  c #292524",
"r  c #252D33",
"t  c #26323C",
"y  c #373739",
"u  c #353537",
"i  c #423E3F",
"p  c #293A44",
"a  c #263741",
"s  c #3F4042",
"d  c #33424F",
"f  c #2F485C",
"g  c #384450",
"h  c #3B5264",
"j  c #424444",
"k  c #484847",
"l  c #59585A",
"z  c #415364",
"x  c #4A5A68",
"c  c #585B60",
"v  c #4F616D",
"b  c #50606D",
"n  c #5B626A",
"m  c #5C6E7C",
"M  c #546778",
"N  c #6B6E6F",
"B  c #626061",
"V  c #64727F",
"C  c #727271",
"Z  c #5B7386",
"A  c #577388",
"S  c #577E9F",
"D  c #5A7E9C",
"F  c #647584",
"G  c #6B7D8C",
"H  c #647788",
"J  c #607B90",
"K  c #6B7E91",
"L  c #587EA2",
"P  c #5D819D",
"I  c #6D808F",
"U  c #74828B",
"Y  c #7B838E",
"T  c #6E8397",
"R  c #63849E",
"E  c #6B869C",
"W  c #6D899E",
"Q  c #728595",
"!  c #798695",
"~  c #758896",
"^  c #7A8A95",
"/  c #71869A",
"(  c #738A9B",
")  c #7A8D9C",
"_  c #7D919F",
"`  c #5E82A1",
"'  c #6386A2",
"]  c #6987A1",
"[  c #6689A4",
"{  c #6B8BA5",
"}  c #678AA8",
"|  c #6C8EA9",
" . c #728EA5",
".. c #7A8EA2",
"X. c #718FA9",
"o. c #6E91AB",
"O. c #7391A6",
"+. c #7B92A5",
"@. c #7492AA",
"#. c #7A96AC",
"$. c #7C99AE",
"%. c #7798AB",
"&. c #7594B1",
"*. c #7896B2",
"=. c #7E9AB1",
"-. c #888587",
";. c #889198",
":. c #9B9C9E",
">. c #989798",
",. c #8494A5",
"<. c #8099AE",
"1. c #889FAE",
"2. c #8698A7",
"3. c #909EA9",
"4. c #829DB3",
"5. c #899EB3",
"6. c #859FB8",
"7. c #8EA1AF",
"8. c #86A1B5",
"9. c #8AA3B6",
"0. c #85A3BA",
"q. c #8CA5BA",
"w. c #8EA8BB",
"e. c #93A5B4",
"r. c #9FABB7",
"t. c #91A7BB",
"y. c #94ABBD",
"u. c #9DAEBE",
"i. c #99ADBD",
"p. c #98A4B2",
"a. c #9AB0BE",
"s. c #9EB0BD",
"d. c #B1B0AE",
"f. c #A0AEB9",
"g. c #A2B1BD",
"h. c #B5B8BC",
"j. c #B4B4B6",
"k. c #8EA9C2",
"l. c #8AA5C0",
"z. c #90ABC0",
"x. c #96ADC1",
"c. c #99AEC1",
"v. c #9AAFC1",
"b. c #9BB1C0",
"n. c #9DB3C1",
"m. c #9EB1C1",
"M. c #9DB3C5",
"N. c #9FB4C5",
"B. c #9EB5C6",
"V. c #9DB2C3",
"C. c #A1B3C2",
"Z. c #A1B4C3",
"A. c #A2B5C5",
"S. c #A4B7C5",
"D. c #A4B7C6",
"F. c #A6B7C6",
"G. c #A2B5C5",
"H. c #A9B7C0",
"J. c #A6B8C6",
"K. c #A5B8C7",
"L. c #A9B9C6",
"P. c #AABAC6",
"I. c #A3B7C8",
"U. c #A6B9C8",
"Y. c #A7BAC9",
"T. c #A5B9CA",
"R. c #A6B9C9",
"E. c #A8B9C9",
"W. c #A9BBC9",
"Q. c #A8BAC8",
"!. c #A9BACA",
"~. c #AABBCB",
"^. c #AABAC9",
"/. c #ABBDC9",
"(. c #A9BCCA",
"). c #AABCCA",
"_. c #ABBDCB",
"`. c #AABDCB",
"'. c #ACBCCB",
"]. c #A9BBCA",
"[. c #A6C0D1",
"{. c #D2D2D3",
"}. c #DBDCDC",
"|. c #D6D6D8",
" X c #CACACA",
".X c #E1E1DF",
"XX c #DCE0E3",
"oX c #E3E3E5",
"OX c #E9E7E8",
"+X c #E6EAED",
"@X c #ECEDEE",
"#X c #E3E7E8",
"$X c #F1EEEE",
"%X c #EDF0EF",
"&X c #F0F0EE",
"*X c #EDEEF1",
"=X c #F1EEF1",
"-X c #EEF1F3",
";X c #F1F1F2",
/* pixels */
"/././././._.~.~.~.~.~./././.L.J.Y.T.Y.I.S.S.S.S.S.S.S.S.S.S.I.I.J.Y.Y.~.~.~.~.~.P.L.L.L.L.L.J.Y.Y.Y.~._.~./._././././.'._./.~._.",
"/./././._._.~.~.~.~.~.~.~.~.S.G.N.N.N.N.C.V.V.u.V.V.V.V.V.V.V.V.G.G.S.Y.Y.Y.~.~.J.J.S.J.J.S.S.S.J.I.~.~.~.~././././././././.~.'.",
"/./././._._././.~.~.Y.Y.G.G.Z.n.b.b.V.V.V.v.i.i.i.x.v.y.y.i.i.i.u.u.V.C.N.G.N.N.N.N.N.N.N.V.V.V.G.G.G.S.S.Y.~.~././././././././.",
"/./././._._././.~.~.Y.S.Z.V.s.a.a.i.i.i.i.i.y.y.t.t.t.w.t.q.q.e.t.t.y.t.y.y.y.z.y.z.k.z.z.y.y.y.i.i.V.V.Z.G.S.~.~./././././././.",
"/./././.'.'.~.~.~.~.J.Z.b.i.y.y.i.y.t.t.w.q.q.q.q.q.q.8.8.4.4.5.5.5.5.8.8.8.8.8.8.8.4.4.6.8.q.q.w.y.v.v.v.a.C.S.~.~././././././.",
"/./././.'.~.~.~.~.Y.G.V.y.y.t.t.e.e.9.4.4.4.=.=.4.4.4.4.4.4.4.4.=.=.=.=.#.#.%.@.%.@.@.@.#.$.=.4.8.w.y.y.y.y.i.V.S.~././././././.",
"_._././././.~.~.Y.G.V.y.t.q.9.8.5.4.4.=.=.=.#.%.#.$.#.$.#.*.*.*.&.&.@.@.@.O.X.X.X.X.X.@.@.@.@.#.$.8.q.w.y.y.y.i.Z.S.~.~.Y./././.",
"_._././././.~.Y.G.N.v.t.q.4.4.4.4.$.#.@.@.@.@.@.O.O.O.@.@.@.@.&.o.o.@.X.X.{ { { { { { X.X.X.@.@.@.$.4.9.y.y.t.y.V.G.I.Y.Y././.~.",
"_._._.~././.Y.G.V.y.w.9.4.$.#.@.@.@.@.@.X.| X.{ @.{ X.{ X.| { o.{ { X.{  .{ {  .{ { { { { { { { { @.#.8.q.w.y.t.y.v.C.G.S.Y.~.~.",
"/._._.~.~.Y.Z.v.y.q.4.4.$.@.@.| { | | | | { { { { { X.X.{ {  .( ( ( ( (  . .X.{ { { { { { { ] ] ] { @.=.8.w.y.y.t.i.i.V.G.J.Y.Y.",
"~./._.~.Y.N.y.w.8.4.#.#.@.@.{ { [ } | { { ] ] [ [ | ' {  ./ H % X . . > ) .. .X.{ { { { { { ] R R { O.%.=.8.w.w.w.t.y.i.C.S.J.S.",
"~./.~.Y.G.b.w.4.$.#.@.X.| { { [ } } { { R R R ' [ [ [ E / % .       . . @ K ..X.{ | { { { { ] R R [ { { @.=.8.q.q.w.t.i.Z.S.S.G.",
"~.~.Y.S.V.y.8.$.O.X.{ { { { [ { { [ ' R R P P ' ' ' { / > .               . G ..X.| | | | | ] R R [ { ] X.%.=.4.9.q.y.V.G.J.J.S.",
"~.~.S.N.v.w.4.%.{ { { { { [ [ { ' R R P P P ' ' '  .( m .     -.=X@X{.O     @ )  .@.| | | | { ] ' ' ' { { @.%.=.8.9.t.b.I.Y.J.S.",
"~.J.G.V.y.9.$.O.{ { { [ [ ' ' [ R P P P ` ' ' ]  .) 1 . :   ;.*X*X@X$X@X-     p +.O.@.| | | { ] ] ' ' { { { O.%.=.4.9.i.I.Y.J.G.",
"~.S.C.v.y.8.#.{ { { [ ' R R P P R P P ` ' [ ] E z . . . o o #XN w *X=X@X@X    . _ +.@.X.| | { { { ' ' { { ] { @.#.$.8.y.N.Y.S.C.",
"J.G.n.i.9.$.@.{ { { [ ' P D D P ` ` R R ' { W > .   $ $   r *X$ o -X@X$X$XO   . m ) O.@.{ { { | [ [ [ [ ] { { { @.#.=.w.V.I.J.C.",
"J.G.V.y.9.$.@.{ { [ ' ' P D D D L ` R R {  .+.m 7 = 2 & . c @X*X@X@X;X@X|.;   . , ( +. .| { { { { { [ { ] ] { { X.@.#.8.x.N.I.Z.",
"I.G.V.y.4.#.X.{ { [ ' R P D D D S ` ' { { O.$.9.7.) x 5 . q oX@X-X-X@X@Xi -   . @ .. .{ | [ | [ { { { { ] ] { { { @.#.4.y.b.G.Z.",
"I.G.b.y.4.@.X.{ { { ' P D D D D D ' { @.X.#.4.8.w.y.e.2.. . l @X@X@X@XOX    .   @ (  .X.} { { { { { { { { { { { X.@.#.4.w.v.V.C.",
"I.n.b.w.<.O.X.{ { { ' D D D D D P [ { o.@.=.l.k.k.w.5.2.< . + d.%X{.}.-   O     . (  .| | | [ { } [ { { { { { { { @.#.4.q.y.i.V.",
"I.n.v.w.<.@.X.{ { { ' D D D D P R [ o.o.&.=.0.k.l.4.<.) t     O y w -           . )  .| | | | [ { } { { { { { { { { @.$.8.w.y.V.",
"I.n.v.w.4.@.X.{ { { ' P P D D P R ] o.o.@.&.=.$.=.+.,.5 & o O ; ; 0 u           . ~  .X.} [ | { { [ [ { { { { { { { @.#.4.q.y.V.",
"I.n.x.w.4.#.X.{ { [ ' R ' D D P R { { @.@.@.#.+...) 6 . $ O                     . ! ..] | | [ { { [ [ { { { { { { { @.#.4.9.t.V.",
"G.n.v.w.4.#.X.{ { { ' ' ' P D P ] { | @.O...( ) ^ ^ .           ; >.j.N       o . d / { | { [ { { [ [ { { ] { | | { @.#.4.9.v.N.",
"G.n.v.t.4.$.@.X.{ { ' ' ' ` P R ] X.{ #.( ^ 7 . . X         l *X=X*X-X%Xk         . x ( { ] { { [ ] ] ] ] { { | { { X.#.4.q.v.N.",
"G.n.v.y.9.4.#.@.{ { [ ' ' R ' R '  . .) * .             O j =X*X*X*X@X@X.X      O . @ ( T { { ' E ] { { { { { [ { { X.@.$.q.b.G.",
"G.C.v.y.q.4.$.@.{ { [ [ ' ' ' R {  ...@ . .             w @X=X=X*X*X@X@X&X9     o   . * Q W E { ] { @.@.| { { { { { X.@.$.9.N.I.",
"S.Z.b.y.w.8.=.#.@.{ ] ] [ ' ' ' W ( @ .               & :.*X@X@X@X*X-X@X@X@X          . G ( { { X.@.#.#.@.O.{ { { { X.@.$.q.N.Y.",
"J.G.b.y.y.q.4.$.@.O.{ { { { [ E ( # . .               j -X*X@X=X-X*X*X@X;X@X            # ~ W | @.=.4.4.=.@.{ { { { @.@.$.q.N.Y.",
"J.G.V.x.y.w.8.4.#.O.{ { { { | { b . 4 2     . .     o {.@X@X+X*X-X*X@X@X@X$X              v  .@.#.4.8.4.#.X.{ ] { | @.#.$.q.N.I.",
"J.G.V.i.y.y.q.8.=.%.X.{ { | |  .@   . . # U Y .     k *X-X*X-X@X*X@X;X@X$XoX.             . ..#.=.8.8.=.X.{ { { { X.@.#.$.9.v.N.",
"J.G.Z.v.y.y.w.q.4.#.@.@.X.X.X.... . @ Z ( ( ~ .     :.*X*X@X-X@X@X;X@X@X=X*X. .             1 ,.8.0.0.&.| { { { { @.@.@.#.4.t.N.",
"J.G.Z.v.y.t.w.9.4.$.#.@.X.X.X...# @ ..{ { W Q .     @X@X*X@X@X*X@X@X;X@X=X*Xn .               ;.5.#.@.| | [ | { @.@.@.@.#.4.w.b.",
"Y.S.Z.V.y.t.9.8.4.4.#.#.@.@.X. .~ )  .{ ]  .Q @   - @X*X@X*X*X*X@X*X*X@X@X*Xh..     $         # +.X.{ { | { { ] @.#.@.@.#.4.w.x.",
"Y.S.G.b.y.t.9.4.4.4.=.#.@.@.@.X.( +.{ @.o.E Q .   9 *XoX*X*X*X*X*X-X@X@X@X-XXX      4 $ .     . I W ] { ' [ | @.@.#.#.#.$.4.9.y.",
"Y.J.G.V.x.t.9.4.4.4.=.#.%.@.@.O.O.O.| | ] E Q .   j *X@X@X@X@X@X*X@X@X;X@X@X@X      # ^ # .   . > ( { { | { ] { X.@.@.#.$.4.9.y.",
"Y.J.G.V.y.t.9.8.4.4.=.#.@.@.@.O.X.{ | { R E ( .   s *X*X-X*X@X@X*X*X@X@X@X@X@X      . ! ~ # . . @ / E { { { { O.@.@.@.@.$.4.w.x.",
"Y.J.N.V.y.t.9.8.4.4.#.%.@.@.@.O.X.@.| ' ] { ( .   j *X-X+X-X=X@X*X-X*X@X;X@X@X      . V Q ( . . @ (  .{ { | ] O.O.%.@.@.$.4.t.N.",
"Y.S.N.b.y.w.9.8.=.=.#.%.@.@.@.@.@.| | X.] ( Q .   j -X*X*X*X*X@X*X@X@XOX@X@X@X      . @ ( T ! . @ ( W ] { [ { O.@.%.#.#.=.8.t.V.",
"J.G.N.v.y.w.9.4.=.#.#.#.@.@.@.@.| | @.{ { ( ( .   0 @X*X+X-X@X@X*X*X*X@X@X@X+X        . Q ( ~ # @ T W ] ] [ ] @.%.%.@.=.4.4.t.b.",
"J.G.V.i.y.w.8.4.=.$.#.@.@.@.@.X.@.| { @.X.W ( @     |.*X*X*X*X=X*X@X@X@X%X@X+X        . M  .T 3 @ Z W { { | @.O.@.%.@.=.4.4.y.N.",
"J.G.V.y.t.9.4.4.=.#.@.@.X.X.X.X.{ @.X. . .O...> .   @X*X+X*X*X*X*X@X;X@X-X-X*X          z E  .A f J { { { | { { X.@.@.*.4.4.y.N.",
"S.G.b.y.w.8.4.=.#.@.@.@.X.X.X.X.@.{ O.@.X.{ O.F      X;X-X*X@X*X*X*X@X-X@X-X|.          H { { R E W { | | | { { { X.@.=.=.4.y.b.",
"G.C.v.y.w.8.4.$.@.@.@.@.@.@.X.X.O.X.O.X.{ O.E T .   -.@X*X@X-X@X@X*X-X@X@X@X{.        . Q { [ { { W | | | { { ] E X.@.=.4.9.y.V.",
"C.V.i.y.w.8.4.$.@.@.@.@.@.@.X.X.@.@.O.X.{ { ' T .   B @X@X*X*X*X%X@X*X*X$X@XC         . ( ] [ | ] ] [ ' [ ' [ R E X.@.$.4.q.b.G.",
"Z.V.i.y.t.9.4.#.@.@.@.@.@.@.X.X.@.%.X.X.[ [ [ W .   o ;X*X@X@X-X%X@X-X-X$X$Xe         . ( ] | [ [ R ' ` ' ` R R ] X.@.$.4.w.b.G.",
"G.Z.v.y.t.9.=.#.@.@.@.| o.@.X.@.@.@.{ { { [ } { g     >.@X;X@X@X@X*X*X*X@X$X          r ( { [ [ R P P P D ` R R ] X.@.#.4.w.b.G.",
"G.V.v.y.t.8.4.$.@.@.@.| | | @.@.| @.| { | [ { W Q .     @X@X-X*X*X*X*X*X*X@X        . ^ W { ' ' P D D P ` ` R ' { { @.#.=.q.b.N.",
"Y.G.N.v.y.9.4.$.@.@.@.| | @.@.@.@.{ { | | { { W ( t     C @X@X-X*X*X*X*X-X-X-       . ( W R ' P P P P P ' ' ' [ { { @.#.4.q.v.N.",
"Y.G.V.v.y.9.4.=.@.@.@.X.X.@.@.X.X.X.X.X.{ { { { W Q . .   @X;X@X@X*X-X*X*X@XO       . d W ] ' ' P P R ' ' ' ' { { { @.#.8.y.N.G.",
"J.G.V.i.y.w.4.4.#.@.@.X.@.@.@.X.X.X.O.{ { { | { ]  .H .   O @X@X@X@X-X*X-Xh.          . ~ E R ' ' ' ' [ [ ' [ { { { %.4.q.y.Z.G.",
"Y.S.G.V.x.t.9.4.$.#.%.O.@.@.@.X.O.O.{ { o.o.[ [ { W ~ =     O }.#X#X;X@XoX            . % Q R [ [ [ { { { [ { { { @.$.8.y.V.G.C.",
"Y.S.G.V.v.y.q.8.4.$.#.%.@.@.@.X.X.O.{ @.@.{ { X.W Q * .         O O                     . F E ] { | | | { { { X.{ #.4.w.v.G.S.S.",
"J.J.G.C.b.y.t.q.8.4.<.$.$.#.@.@.X.@.@.&.@.{  ./ 8 .     O                               . . T { o.o.@.| { { { X.O.4.q.y.G.Y.Y.~.",
"J.J.S.G.G.V.v.t.w.9.8.4.4.=.$.#.#.@.@.@.X. ...F .                   O                     . G  .@.@.@.@.{ { X.X.$.9.y.N.Y.~.~.~.",
"~.~.J.S.G.G.V.i.y.w.w.w.9.8.4.$.4.#.#.#.#._ p .                                           @ 6 h @.@.@.X.{  .@.$.w.y.N.S.Y./.~./.",
"~.~.~.J.J.S.G.V.b.b.x.y.y.w.9.8.4.4.4.9.9.7., .             .     . . . # = < @         . % M K #.#.#.@.X.O.$.4.y.V.S.J.~.~.L./.",
"~.~.~.J.Y.Y.S.N.G.N.N.b.v.y.y.t.z.w.x.y.y.i.i.p.r.g.r.i.i.) U 3.f.g.p.s.i.i.e.F > . * a Q +.$.4.4.$.$.$.#.#.4.t.b.G.~.~.~.~.~./.",
"/.~.~.~.~.~.Y.J.I.I.G.G.N.V.v.v.v.N.V.I.G.I.C.S.S.C.Z.N.N.G.Z.s.u.S.I.V.V.G.v.i.e.e.e.1.1.8.w.q.q.9.4.4.4.9.y.b.G.Y.~.~.~./././.",
"/./.~.~.~.~.Y.J.Y.Y.Y.J.J.S.G.Z.S.S.C.J.J.S./.L.L.Y.Y.I.I.S.L.P.P.L.J.Y.G.Z.S.g.g.i.y.i.y.i.y.v.y.y.t.w.t.y.b.G.J.~.~.~.~./././.",
"/./././.~.~.Y.Y.Y.Y.Y.Y.Y.Y.J.J.L.L.L.L././.L.L.S.~.`.!.!.~.L.H.L.S./.J.~.~.C.S.S.Z.V.V.Z.C.S.g.Z.N.v.b.b.N.G.S.~.~.~.~.~./././.",
"/././././.~.~.~.J.J.J.J.J.J.J.~.L.~.(.Y.`.Y./.L.'.~.~.Y.Y.~.~.~././.~._.~.J.'.S.C.I.Y.N.!.G.J.S.I.G.G.n.G.I.J.J.~.~.~.'.~./././.",
"/././././.~.~./.~.~.~.J.J.~.~.~.~./.Y.[.T.`.~././.~.~.~.~./.~.Y./.~.~.~.~.~.~.P.~.I.I.I.!.Y.~.S.S.I.I.G.G.I.Y.Y./.~.~.'./.~./.~."
};
