/* XPM */
static const char *xpm_[] = {
/* columns rows colors chars-per-pixel */
"64 64 195 2 ",
"   c #1C1D1E",
".  c #171C1F",
"X  c #211D1E",
"o  c #161E23",
"O  c #1C1E22",
"+  c #211E25",
"@  c #172226",
"#  c #1D2326",
"$  c #17232A",
"%  c #1D252A",
"&  c #1E282D",
"*  c #1F2C32",
"=  c #1D2730",
"-  c #212326",
";  c #22252A",
":  c #28272D",
">  c #23292D",
",  c #2A2B2D",
"<  c #242D33",
"1  c #2A2E33",
"2  c #242E38",
"3  c #292E39",
"4  c #263136",
"5  c #2B3136",
"6  c #25343B",
"7  c #2A353C",
"8  c #26383D",
"9  c #2C393D",
"0  c #30363B",
"q  c #313A3E",
"w  c #303136",
"e  c #2C3740",
"r  c #2C3C42",
"t  c #263841",
"y  c #323D43",
"u  c #383F47",
"i  c #303E49",
"p  c #2E4045",
"a  c #2F4048",
"s  c #344146",
"d  c #384347",
"f  c #35434A",
"g  c #39454B",
"h  c #3D494E",
"j  c #364C52",
"k  c #3C4B52",
"l  c #3E5057",
"z  c #3F5258",
"x  c #3F5563",
"c  c #3E5967",
"v  c #3D5A69",
"b  c #404B4F",
"n  c #414D53",
"m  c #444F58",
"M  c #435156",
"N  c #43535B",
"B  c #49555D",
"V  c #46585E",
"C  c #4E595F",
"Z  c #425662",
"A  c #495760",
"S  c #445B65",
"D  c #4B5C63",
"F  c #445E6B",
"G  c #4D5E68",
"H  c #515F66",
"J  c #4F6165",
"K  c #44616D",
"L  c #4B626B",
"P  c #53646C",
"I  c #5B686F",
"U  c #55656A",
"Y  c #466172",
"T  c #4B6572",
"R  c #4D6976",
"E  c #4D6A79",
"W  c #526671",
"Q  c #536A74",
"!  c #5B6C74",
"~  c #546E7A",
"^  c #5B6E7A",
"/  c #5D7077",
"(  c #55727D",
")  c #5B727B",
"_  c #63757C",
"`  c #65787F",
"'  c #68787D",
"]  c #567481",
"[  c #5C7682",
"{  c #5C7985",
"}  c #5D7D8A",
"|  c #627682",
" . c #647B84",
".. c #6A7D85",
"X. c #637D8A",
"o. c #6B7F89",
"O. c #717E85",
"+. c #5D818E",
"@. c #6C8187",
"#. c #65828C",
"$. c #6C828B",
"%. c #6F888E",
"&. c #72858D",
"*. c #74898F",
"=. c #77868A",
"-. c #648392",
";. c #6B8591",
":. c #6D8A95",
">. c #6E8C9A",
",. c #738691",
"<. c #798790",
"1. c #738A94",
"2. c #7A8C95",
"3. c #748D99",
"4. c #7A8F9B",
"5. c #769096",
"6. c #7C9197",
"7. c #75929C",
"8. c #7B939C",
"9. c #7D989F",
"0. c #7692A1",
"q. c #7C95A2",
"w. c #7D9AA4",
"e. c #7E9BA9",
"r. c #818D96",
"t. c #818E9A",
"y. c #83959C",
"u. c #84999E",
"i. c #8296A2",
"p. c #849BA4",
"a. c #8A9CA4",
"s. c #849DA9",
"d. c #8A9DAA",
"f. c #929FA8",
"g. c #8DA1A6",
"h. c #85A1AB",
"j. c #8BA2AC",
"k. c #8DA9AF",
"l. c #85A0A7",
"z. c #92A4AC",
"x. c #99A6AF",
"c. c #93A9AF",
"v. c #8DA5B1",
"b. c #8DA8B3",
"n. c #92A6B2",
"m. c #94AAB4",
"M. c #9AACB4",
"N. c #96ACB9",
"B. c #9AAEB9",
"V. c #97B0B7",
"C. c #9CB1B7",
"Z. c #9DB2BC",
"A. c #A1AFBC",
"S. c #A1B6BE",
"D. c #A2B4BD",
"F. c #A8B6BF",
"G. c #A5B9BE",
"H. c #A9B8BF",
"J. c #9EB4C1",
"K. c #9DB8C1",
"L. c #A5B7C1",
"P. c #A3B6C1",
"I. c #ACB7C2",
"U. c #A5BAC3",
"Y. c #AABCC5",
"T. c #ACBEC9",
"R. c #B2BDC4",
"E. c #B0BDCA",
"W. c #ACC0C7",
"Q. c #AEC1CA",
"!. c #B3C2C6",
"~. c #B3C4CC",
"^. c #B9C5CC",
"/. c #B6C8CE",
"(. c #BBC9CE",
"). c #BAC6D1",
"_. c #B5C9D4",
"`. c #BCCBD2",
"'. c #B8CAD6",
"]. c #C1CACE",
"[. c #C3CDD3",
"{. c #C8CFD5",
"}. c #C5CFD9",
"|. c #C6D1D6",
" X c #CAD3D6",
".X c #CCD5DB",
"XX c #CFD8DC",
"oX c #C5D4DB",
"OX c #D0D7DE",
"+X c #D2DBDD",
"@X c #CBDAE3",
"#X c #D5DDE1",
"$X c #DADFE5",
"%X c #D7E0E6",
"&X c #DBE1E7",
/* pixels */
"U.Q._._.).).Y.Z.b.w.0.4.2.D : - & f 1.8.l.k.V.Z.D.L.G.D.D.Z.Z.M.B.B.B.m.c.c.j.h.s.e.0.0.3.,.f % # > D u.w.w.p.l.p.j.j.b.b.b.j.g.",
"D.Y.Q.Q.~.E.D.m.h.w.7.3.1.A ; O $ g 6.p.j.b.V.U.Y.T.W.W.T.Y.L.D.B.V.B.m.M.M.m.b.s.e.0.7.3.1.g % # & D 8.p.s.l.l.k.n.m.N.N.m.m.m.",
"m.V.K.P.L.D.m.j.e.7.7.3.:.N % # & n 2.y.k.m.Z.U.T.E.T.T.T.Y.L.D.Z.V.B.m.m.m.m.b.s.w.0.3.3.1.k % # & B 4.q.w.p.p.j.n.n.N.B.B.B.M.",
"p.j.k.c.c.z.p.9.7.:.3.3.1.z % # & B 2.y.p.c.M.F.I.I.Y.F.F.F.D.B.M.M.m.c.c.k.j.a.i.8.3.1.;.&.M & # % m 2.4.8.8.p.p.a.j.n.n.M.m.c.",
"` ....@.&.=.&.@.@.@.$.&...M > # < C =.2.y.a.j.x.M.M.M.M.M.M.x.x.z.z.z.j.g.a.a.y.u.2.$.@.....M < # > n ...... . .@.&.,.1.2.1.*.&.",
"7 7 7 7 7 7 7 7 8 r e 7 e < # # % 4 r 9 r r y s d u y y 9 < & & < < 2 < < * = & = 2 r r 6 9 4 % # # < 7 6 6 r 8 6 6 7 7 7 6 6 4 ",
"; ; ; ; ; % # % # ; ; ; - - O # # ; % & & & ; ; ; % % > > % # # - ; % % % % % ; % % > & % % ; # O - - % & % & # # ; ; - ; ; ; & ",
"; ; ; ; ; - # - - ; - : ; ; - - ; > # % % % ; ; ; ; ; % # ; ; - ; ; - # # # - ; ; - ; % ; % ; - - - - - < % ; # - - - - - - % # ",
"; ; ; % % % # # # ; ; ; ; ; > % % % % % % % ; ; ; > > % % > : , : : > ; % & % ; ; ; ; % ; ; ; : ; ; % ; ; ; - # - - ; ; - ; ; % ",
"y s u s d q > ; > q d d g g h h h b b h h h g d g g h k g 4 , , : > 4 d g g g g g h b h n b h n h h g g f d y 1 ; > 0 y y y q q ",
"y.y.y.y.2.! s 4 y I 2.2.4.2.u.p.a.g.g.g.a.a.y.y.6.2.1.1.` s 5 4 # ; r !  .@.,.6.y.a.a.a.a.a.a.a.u.8.5.5.2.6.! s 4 s ! *.*.&.@.@.",
"Z.B.M.c.a./ 7 & < H 6.u.p.d.j.m.M.B.Z.M.M.n.j.d.q.3.1.3. .r 4 4 % & r )  .#.3.q.j.c.M.M.M.M.m.c.j.p.e.w.p.p.P 4 & e _ p.l.p.p.p.",
"Q.Y.D.M.j./ 6 & < B 8.p.h.n.B.D.Y.U.Y.U.L.Z.B.M.h.q.8.1...s 5 5 ; & r ) [ #.7.s.m.Z.P.U.U.U.P.Z.M.n.h.w.w.8.A < > 9 ` k.m.m.Z.Z.",
"~.T.Y.Z.n._ 3 ; ; n u.j.b.N.P.Y.T.T.Q.Q.T.Y.P.Z.n.s.q.1...g 4 1 ; & a ) { -.q.v.Z.P.W.Q.Q.Q.Y.Y.B.m.h.w.w.y.M > ; 7 ..C.Z.P.Y.Y.",
"~.Y.U.M.j._ 3 ; 1 n y.j.m.Z.P.U.T.T.Q.Q.W.Y.D.Z.v.w.7.%. .g 5 1 ; ; f / X.;.q.b.Z.U.Q.~.~.~.T.Y.L.B.b.w.q.2.n > ; 5 O.C.D.Y.~.).",
"Q.G.Z.c.a._ 1 ; ; n y.h.b.m.B.D.D.P.U.U.L.Z.m.m.p.3.#. ._ s 1 5 - % g / X.;.8.h.N.Z.U.Y.W.T.Y.U.D.M.v.e.8.6.n > : w O.M.Z.U.~.`.",
"D.B.b.p.8.! 4 ; > k 8.p.l.h.v.b.n.m.m.n.n.j.s.q.3.#.{ [ ! y 3 1 % & g /  .#.:.q.h.b.N.V.Z.Z.Z.B.M.v.p.w.8.2.k > - 5 ' c.m.J.T.~.",
"d.i.8.5.*.J > ; ; n 1.5.8.q.q.q.i.i.i.i.q.8.3.;.X.[ ~ ) P y < 4 & & h _ | X.;.3.8.q.s.s.d.j.j.s.p.i.8.7.1.&.n ; : 1 I u.j.b.B.L.",
",.,.@.@.` n % % < m &.$.,.&.$.$.@.@.@.@.o.o. .[ ) Q W P P r < 4 % & h ^ / )  .X.$.$.&.&.&.*.*.&.,.,.$.;.@...M < % ; B @.2.6.i.a.",
"r r r r p < O O # < s y s i i r r r r e r r r r t r 6 7 7 < > 4 - > 4 y e r r r i y y y y y y r r r r a r r < o o O < y a r y u ",
"& % $ # # # # O O # - % % % & # % # # # # % % % # $ ; # : ; , : ; , ; # % & % & & % % % % # # # % & % % % % % # # O # ; # % % % ",
"% # # % # # - O # - - O   O # % - - ; # # # # # ; ; # ; O ; > : , : - - ; # # # - # - - - # % % % # O   O # ; # O O - - ; # # # ",
"; # - - # - # % % # . O O # o # # # # # % % % % % # % % ; # % # ; - - # # # ; ; ; - # - ; % % % # . X X     # # # # # # # # % % ",
"7 7 9 5 7 7 5 7 6 < O O O O o 4 4 6 6 7 9 9 9 e y y y y 9 9 9 q 9 q y q y y y q q q q 9 9 7 7 7 5 @   X O O < 6 6 6 7 5 5 9 7 7 ",
"( [ [ _ | | ) ~ W D o O - O o D W Q ^ | @.*.2.2.r.r.r.r.r.t.t.y.y.y.p.y.y.a.a.a.u.y.y.6.1.&.@.o.' # O O O o D L L L W ^ | ..&.&.",
"+.#.#.#.#.#.X.{ ( P & O O O < P Q ( { ;.2.i.a.j.n.x.x.x.x.M.M.M.C.D.D.G.U.U.U.G.D.Z.M.c.j.p.q.8.2.e # O O $ L R R E ^  .,.8.p.s.",
">.3.3.3.3.3.;.} ] W 2 # O % s W ^ | ;.8.a.n.D.F.I.R.R.R.R.R.R.R.!.~.`.`.[.[.`.^.^.~.T.F.B.m.j.d.p.N ; # O 6 T E E ~ { ;.i.m.J.P.",
"s.s.h.v.h.s.0.-.{ W 6 % % % j )  .$.4.a.M.F.R.^.^.].[.[.].].].[. X.XXXXXXX.X.X|.{.`.^.R.F.M.n.j.a.P > ; ; 7 Q ( ] { :.p.B.Q._.'.",
"Z.Z.D.F.D.M.w.:.X.! 4 # ; % V @.1.5.p.c.F.!.].[. X X.X X X XOXOXOX+X+X+X+X+XXX.X|.[./.!.U.Z.M.c.g.I > - ; 4 _  .$.3.j.D.~.oX@X@X",
"T.~.~.~.T.B.p.1.o.! < # - > P 2.8.p.c.D.R.(.[.|..XOXOXOXOXOX+X+X+X+X#X#X#X#XXX.X|.`./.W.G.Z.M.c.z.^ > - ; 5 ..2.q.h.D./..X#X%X%X",
"`.`.`.^.~.D.d.3.@.! < - - < ! 8.p.j.M.H.!.]. X X.X+X+X+X+X+X+X+X#X#X#X#X#X#XXX X[.`.~.W.L.Z.N.n.j._ < ; ; < ..i.h.B.Q.[.+X%X&X&X",
"`.`.`./.~.D.h.8.,.! < ; - > ^ i.p.c.Z.Y.^.[.|. X.XXX+X+X+X+X+X+X+X+X+XOXXXXXoX}.[.).~.T.L.Z.N.n.h. .< ; ; < ..s.b.Z.Q.`..X+X#X$X",
"`.`./.~.W.Z.h.8.,.! < ; - > ! 8.i.j.M.F.Y.^.[.|.|.|. X X.X.X.XXX.X.XXX X X{.{.[.).~.R.Y.P.B.b.h.h._ > - ; < ..j.k.M.U.~.[..XXXOX",
"~.~.T.Y.G.M.j.8.,.^ < - # > P 3.u.a.m.M.D.Y.~.`.[.[.{.|.|.|.|.|.|.|.|.[.[.`.`.^.~.T.F.B.m.j.p.q.8.! > ; ; 1 *.j.k.m.D.T.^.[.|.|.",
"T.T.U.D.Z.m.p.8.$.^ > - - ; A ;.8.p.n.m.M.D.T.~.~.^.(.`.`.`.`.`.`.`.`.`./.~.T.U.D.M.c.p.8.3.;.#.@.D > - ; 4 <.j.k.m.C.U.~.^.(.(.",
"L.L.D.Z.M.k.w.3.$.^ 1 - - ; l  .1.w.h.b.m.V.P.Y.Y.Y.Q.~.~.~.~.~.~.~.~.Q.Y.U.B.m.j.p.3.#.X.[ ( ) / M ; - ; 5 1.p.h.b.M.L.T.~.).^.",
"Z.Z.Z.Z.M.h.w.3.#.^ 5 # - # j ) X.3.s.h.b.m.m.M.B.C.D.D.P.P.P.P.P.P.P.P.B.n.s.q.1.;.X.] ~ R R R W j ; ; ; y 2.w.s.h.m.Z.Y.Q.Q.Q.",
"N.Z.N.M.b.s.q.>.-.^ 6 o - # a ~ { ;.7.w.s.l.s.a.h.h.j.k.b.n.b.b.b.b.b.v.d.i.3.;. .[ ~ E T Y Y Y L f % # % e 2.q.w.s.v.N.J.Y.T.Q.",
"m.M.n.n.d.i.7.:.X.^ = o O # 4 Q [ X.:.3.7.7.8.3.8.7.8.7.7.8.8.8.7.7.7.3.1.;.X.{ ( ~ R T K F F K L 6 # O o 2 &.7.q.q.p.d.n.B.Z.Z.",
"y.p.i.y.t.2.$. .| ! o O O O @ P ) [ X.;.,.&.&.@.@.o.o.o.o.@.$.$.@.@.@...| _ / ~ Q W L L F S F D D @ O O O o ..&.*.*.2.t.i.a.a.y.",
"q q y q y q 7 9 9 < O O X   @ 7 7 7 7 7 0 0 9 9 7 7 7 9 7 7 7 7 9 9 7 7 e 7 5 7 7 6 6 6 4 4 6 4 4 @ O O O O 7 y 9 q 0 y u y q q ",
"; % % ; ; ; # ; % % O O X   O # ; ; - - - - - # # # % # # # - ; > # # # % % % % # # # # # # # # # O     O O ; # # - ; ; ; % - # ",
"; # # ; ; - - O # % # O   O # & $ # % ; ; # # # % $ $ # # ; > , , ; ; # # % # # # % # # - ; - # % # O   # # - # . - - # # % ; # ",
"& & % % % # O   O # % % % % & & & % % % % % & $ $ $ $ $ % ; > , : , > # % & % & & & ; ; % % % % % & % % % % # # - O # % $ $ % % ",
"e r r a s < o O $ 4 f f f s f f g d g g g f e 6 6 6 6 6 7 1 1 1 > 1 < 7 r r r f g g g g g f f f g g s g i y < # O . & 7 r r r r ",
"$.;.$.#. .n % % ; m *.2.u.a.d.z.f.z.z.z.a.2._ L S x Z N M y 4 1 5 4 f P ! _ 1.i.j.z.x.x.z.z.z.j.z.a.y.6.1...k % # % s L ~ [  .o.",
"1.1.:.:.%.D > ; & n 6.p.c.M.Z.A.D.D.D.D.M.p.o.Q F c Z Z A y 4 1 5 < f ! ) @.q.m.D.F.I.I.U.U.G.D.Z.M.c.p.2.o.g % # ; j T ( { X.@.",
"4.0.0.3.1.P 1 ; ; k u.c.C.D.Y.T.Y.Y.Y.Y.U.m.3.[ Y v c x N r 4 5 4 5 f !  .3.j.Z.Q.~.^.~.~.~.~.Q.T.U.M.h.8.@.y & - < k W ( { #.;.",
"w.w.w.7.3.! 1 : ; n g.m.D.Y.T.Q.Q.W.Y.Y.Y.Z.d.$.E Y v S N y < 3 3 1 g ` *.p.V.W.~.`.`.`.`.`././.~.Y.Z.j.7.$.f % - < M ( ] } #.;.",
"p.s.e.w.8.! 3 - < n p.m.D.Y.Y.Y.Y.Y.U.U.U.Z.n.4.{ E K F S y 4 w 5 5 k o.4.h.Z.Y.~.`.`.`./.~.~.~.T.Y.B.h.7.#.f ; ; < A ( { +.-.-.",
"s.s.e.q.8.! 3 ; & n p.m.B.Z.J.P.Z.Z.V.V.N.N.m.s.;.{ E L G r 5 3 3 5 g ,.i.n.D.Y.Q.~.~.~.T.T.Y.Y.Y.Z.b.w.7.#.f % % 2 S { } +.-.-.",
"w.w.w.0.8.! 6 & < V 8.p.j.n.m.b.b.b.j.j.h.d.s.w.>.X.( Q P r 4 5 5 5 f *.i.h.m.B.D.D.D.D.Z.Z.Z.N.m.v.s.7.:.#.k * & 2 S { } } } +.",
"8.8.7.3.1.W 7 = 2 D 2.5.u.p.w.w.w.w.q.q.8.7.3.:.;. .[ ( P 9 4 4 4 4 s @.8.p.j.j.c.k.j.j.h.h.l.p.p.w.q.7.:.#.N 2 & 6 L  .} } } } ",
"@.@.@.@...P e < 9 J &.@.@.&.@.%.1.1.%.1.%.$.o. .| ) ) ! J 9 5 5 5 5 s ` 1.2.6.6.y.y.8.6.8.8.5.5.1.&.$.$.@...D 9 > 7 A ) ) ) ) ) ",
"r e e r e 7 > ; > 9 u y y f s f s f s s s i y y y y y r q 1 , , , , 4 g h g g d d g g g g g g f g g d f u u 0 > ; > 7 y e e e 9 ",
"% % & % % % @ # # # % ; % % % % % ; % % % % ; % ; % % # ; , , , : , ; & & % ; ; % & & & & & % % % ; ; ; ; - # - # # # % % ; ; ; ",
"- % % ; - # # # # # - ; - # # # - ; - % ; # ; ; - # # # % - ; ; ; ; ; ; & % - ; - ; % ; % - - # # # ; % % % # # # # # # % % % # ",
"; ; - - - % # # % ; ; % % % # O O # ; % % # % % % % $ $ $ $ % ; ; - % % % % % % - ; & & % ; ; - @ @ % & % $ % # # # % % ; % % % ",
"4 4 4 4 5 6 4 4 6 7 6 6 6 < # # # < 7 6 9 9 r 7 r 9 7 6 6 6 e 7 7 9 8 t 6 6 6 6 7 7 6 6 4 7 < # # # < 6 2 2 2 2 * * < 2 5 5 5 5 ",
"_ ` ....O.@.@...`  .| | ) j % # < M _ _ ..@.,.,.,.*.,.*.1.%.&.&.$.@.$.@.o..... . .| ) / / ^ k < @ > g P P G A V D P ! _ ..O.=.=.",
"a.a.j.j.j.j.p.w.8.3.;.#. .j % # % m &.&.1.4.8.i.p.p.p.p.p.p.p.p.i.q.q.q.8.5.2.2.1.;.;.;.o...h % # % j ) ) Q Q Q (  .1.y.d.n.M.M.",
"m.V.Z.V.V.B.m.k.s.q.>.-.#.j % o % g ..,.3.q.s.j.n.n.n.n.n.b.b.k.j.h.h.h.s.p.p.p.w.q.q.3.:.@.g & # % j  . .{ { #.:.8.d.n.Z.D.D.S.",
"U.Y.T.Y.Y.P.Z.m.h.p.7.:.#.z ; O $ f @.3.q.w.v.m.m.m.M.m.m.m.m.m.M.m.m.m.n.n.b.k.v.h.h.w.q.2.f $ O & z ;.:.:.3.8.s.b.B.P.L.U.Y.G.",
"U.Y.T.Y.Y.L.Z.M.b.s.0.:.#.z : + $ s ..2.q.h.b.b.m.m.m.m.m.m.m.m.m.m.m.m.m.m.m.m.b.v.b.h.w.1.i % O > V 3.8.q.p.h.b.N.P.L.L.U.U.G."
};
